<?xml version="1.0" encoding="UTF-8" standalone="no"?>
<svg width="30px" height="30px" viewBox="0 0 30 30" version="1.1" xmlns="http://www.w3.org/2000/svg" xmlns:xlink="http://www.w3.org/1999/xlink">
    <defs></defs>
    <g id="Page-1" stroke="none" stroke-width="1" fill="none" fill-rule="evenodd">
        <g id="index8" transform="translate(-44.000000, -46.000000)">
            <g id="logo" transform="translate(44.000000, 46.000000)">
                <g id="Fill-4327" fill="#4BA0C9">
                    <path d="M15.0146,0.000599999999 C6.7436,0.000599999999 0.0146,6.7296 0.0146,15.0006 C0.0146,23.2716 6.7436,30.0006 15.0146,30.0006 C23.2856,30.0006 30.0146,23.2716 30.0146,15.0006 C30.0146,6.7296 23.2856,0.000599999999 15.0146,0.000599999999 L15.0146,0.000599999999 Z"></path>
                </g>
                <path d="M11.3436,22.6236 C11.5516,22.8056 11.5726,23.1216 11.3906,23.3296 C11.2916,23.4426 11.1536,23.5006 11.0146,23.5006 C10.8976,23.5006 10.7806,23.4596 10.6856,23.3766 L6.6856,19.8766 C6.6816,19.8726 6.6796,19.8676 6.6756,19.8636 C6.6396,19.8296 6.6126,19.7886 6.5886,19.7456 C6.5786,19.7296 6.5656,19.7176 6.5586,19.7006 C6.5306,19.6396 6.5146,19.5716 6.5146,19.5006 C6.5146,19.4286 6.5306,19.3606 6.5586,19.2996 C6.5656,19.2826 6.5786,19.2706 6.5876,19.2556 C6.6126,19.2116 6.6396,19.1706 6.6756,19.1366 C6.6796,19.1326 6.6816,19.1276 6.6856,19.1236 L10.6856,15.6236 C10.8936,15.4416 11.2086,15.4626 11.3906,15.6716 C11.5726,15.8786 11.5516,16.1946 11.3436,16.3766 L8.3456,19.0006 L17.4056,19.0006 C17.6816,19.0006 17.9056,19.2236 17.9056,19.5006 C17.9056,19.7766 17.6816,20.0006 17.4056,20.0006 L8.3456,20.0006 L11.3436,22.6236 Z" id="Path" fill="#FFFFFF"></path>
                <path d="M24.0146,10.5056 C24.0136,10.5486 23.9996,10.5896 23.9886,10.6306 C23.9826,10.6516 23.9826,10.6756 23.9746,10.6956 C23.9706,10.7046 23.9626,10.7116 23.9586,10.7206 C23.9336,10.7696 23.9046,10.8166 23.8656,10.8556 C23.8646,10.8566 23.8646,10.8566 23.8646,10.8576 L19.8646,14.7706 C19.7676,14.8656 19.6406,14.9136 19.5146,14.9136 C19.3846,14.9136 19.2546,14.8626 19.1576,14.7626 C18.9636,14.5656 18.9676,14.2486 19.1646,14.0556 L22.2886,11.0006 L13.6236,11.0006 C13.3476,11.0006 13.1236,10.7766 13.1236,10.5006 C13.1236,10.2236 13.3476,10.0006 13.6236,10.0006 L22.3256,10.0006 L19.1576,6.7626 C18.9636,6.5656 18.9676,6.2496 19.1646,6.0556 C19.3616,5.8626 19.6786,5.8656 19.8716,6.0636 L23.8676,10.1466 L23.8686,10.1466 L23.8716,10.1506 C23.8876,10.1656 23.8936,10.1866 23.9066,10.2036 C23.9326,10.2376 23.9596,10.2706 23.9766,10.3106 C23.9916,10.3476 23.9946,10.3886 24.0006,10.4296 C24.0036,10.4536 24.0146,10.4746 24.0146,10.5006 C24.0146,10.5006 24.0136,10.5016 24.0136,10.5026 L24.0146,10.5056 Z" id="Path" fill="#FFFFFF"></path>
            </g>
        </g>
    </g>
</svg>