<?xml version="1.0" encoding="UTF-8" standalone="no"?>
<svg width="284px" height="258px" viewBox="0 0 284 258" version="1.1" xmlns="http://www.w3.org/2000/svg" xmlns:xlink="http://www.w3.org/1999/xlink">
    <defs></defs>
    <g id="Page-1" stroke="none" stroke-width="1" fill="none" fill-rule="evenodd">
        <g id="index8" transform="translate(-370.000000, -133.000000)">
            <g id="monitor" transform="translate(371.000000, 134.000000)">
                <g id="Path" stroke-width="2" stroke-linecap="round" stroke-linejoin="round">
                    <path d="M94.0323392,228.353191 L94.0323392,255.212766 L94.0323392,228.353191 Z" stroke="#666666"></path>
                    <path d="M67.1936759,255.212766 L214.806324,255.212766 L67.1936759,255.212766 Z" stroke="#666666"></path>
                    <path d="M187.967661,255.212766 L187.967661,228.353191 L187.967661,255.212766 Z" stroke="#666666"></path>
                    <path d="M261.676967,0 L20.1289975,0 C9.01108121,0 0,9.01810213 0,20.1446809 L0,181.302128 C0,192.428706 9.01108121,201.446809 20.1289975,201.446809 L261.676967,201.446809 C272.794884,201.446809 281.805965,192.428706 281.805965,181.302128 L281.805965,20.1446809 C281.805965,9.01810213 272.794884,0 261.676967,0 L261.676967,0 Z" stroke="#666666" fill="#515E68"></path>
                    <path d="M20,22 L262.128632,22 L262.128632,178.793537 L20,178.793537 L20,22 Z" stroke="#333B42" fill="#333B42"></path>
                </g>
                <g id="coins" transform="translate(95.000000, 52.000000)">
                    <path d="M60.9395984,59.3329162 C45.5983743,58.1743977 33.3333216,45.9123938 32.1748031,30.5711696 L31.7662729,30.543731 C31.3577427,30.5162924 30.9492125,30.4888538 30.5315361,30.4888538 C13.7208226,30.4888538 0.0442066277,44.1654698 0.0442066277,60.9761832 C0.0442066277,77.7899454 13.7208226,91.4635127 30.5315361,91.4635127 C47.3422495,91.4635127 61.0188655,77.7899454 61.0188655,60.9761832 C61.0188655,60.5585068 60.9914269,60.1499766 60.9639883,59.7383977 L60.9395984,59.3329162 Z" id="Fill-4439" fill="#63727E"></path>
                    <path d="M63.3054152,0.00152436647 C47.7538285,0.00152436647 35.1046355,12.6507173 35.1046355,28.2023041 C35.1046355,43.7538908 47.7538285,56.4030838 63.3054152,56.4030838 C78.8570019,56.4030838 91.5061949,43.7538908 91.5061949,28.2023041 C91.5061949,12.6507173 78.8570019,0.00152436647 63.3054152,0.00152436647 L63.3054152,0.00152436647 Z" id="Fill-4440" fill="#515E68"></path>
                    <g id="btc" transform="translate(21.000000, 46.000000)" stroke="#333B42" stroke-width="2" stroke-linecap="round" stroke-linejoin="round">
                        <path d="M3.27272727,13.3333333 L11.4545455,13.3333333 L3.27272727,13.3333333 Z" id="Path"></path>
                        <path d="M0,3.33333333 L11.4545455,3.33333333 C14.166,3.33333333 16.3636364,5.57166667 16.3636364,8.33333333 C16.3636364,11.0941667 14.166,13.3333333 11.4545455,13.3333333 C15.0692727,13.3333333 18,16.3183333 18,20 C18,23.6816667 15.0692727,26.6666667 11.4545455,26.6666667 L0,26.6666667" id="Path"></path>
                        <path d="M6.54545455,26.6666667 L6.54545455,30 L6.54545455,26.6666667 Z" id="Path"></path>
                        <path d="M6.54545455,0 L6.54545455,3.33333333 L6.54545455,0 Z" id="Path"></path>
                        <path d="M3.27272727,0 L3.27272727,30 L3.27272727,0 Z" id="Path"></path>
                    </g>
                    <g id="btc-2" transform="translate(54.000000, 13.000000)" stroke="#333B42" stroke-width="2" stroke-linecap="round" stroke-linejoin="round">
                        <path d="M3.27272727,13.3333333 L11.4545455,13.3333333 L3.27272727,13.3333333 Z" id="Path"></path>
                        <path d="M0,3.33333333 L11.4545455,3.33333333 C14.166,3.33333333 16.3636364,5.57166667 16.3636364,8.33333333 C16.3636364,11.0941667 14.166,13.3333333 11.4545455,13.3333333 C15.0692727,13.3333333 18,16.3183333 18,20 C18,23.6816667 15.0692727,26.6666667 11.4545455,26.6666667 L0,26.6666667" id="Path"></path>
                        <path d="M6.54545455,26.6666667 L6.54545455,30 L6.54545455,26.6666667 Z" id="Path"></path>
                        <path d="M6.54545455,0 L6.54545455,3.33333333 L6.54545455,0 Z" id="Path"></path>
                        <path d="M3.27272727,0 L3.27272727,30 L3.27272727,0 Z" id="Path"></path>
                    </g>
                </g>
                <g id="currency_conversion" transform="translate(81.000000, 48.000000)" stroke="#515E68" stroke-width="2" stroke-linecap="round" stroke-linejoin="round">
                    <path d="M11.90625,38.9375 C11.90625,17.5536875 29.2411875,0.21875 50.625,0.21875" id="Path"></path>
                    <path d="M104.09375,61.0625 C104.09375,82.4463125 86.7588125,99.78125 65.375,99.78125" id="Path"></path>
                    <path d="M93.03125,72.125 L104.09375,61.0625 L115.15625,72.125" id="Path"></path>
                    <path d="M0.84375,27.875 L11.90625,38.9375 L22.96875,27.875" id="Path"></path>
                </g>
            </g>
        </g>
    </g>
</svg>