<?xml version="1.0" encoding="UTF-8" standalone="no"?>
<svg width="250px" height="250px" viewBox="0 0 250 250" version="1.1" xmlns="http://www.w3.org/2000/svg" xmlns:xlink="http://www.w3.org/1999/xlink">
    <defs>
        <path id="path-1" d="M0,66 L69.3014652,2.02941672 C70.5156825,0.908600815 72.4835365,0.907879863 73.6985348,2.02941672 L143,66 L143,159.250569 C143,160.907109 141.653193,162.25 139.996766,162.25 L3.00323395,162.25 C1.34459364,162.25 0,160.907753 0,159.250569 L0,66 Z"></path>
    </defs>
    <g id="Page-1" stroke="none" stroke-width="1" fill="none" fill-rule="evenodd">
        <g id="illustration/medium-send-link">
            <circle id="Oval-16" fill="#66BED4" cx="125" cy="125" r="125"></circle>
            <g id="envelope-large" transform="translate(53.500000, 48.000000)">
                <mask id="mask-2" sketch:name="Mask" fill="white">
                    <use xlink:href="#path-1"></use>
                </mask>
                <use id="Mask" stroke="#4B95C9" stroke-width="2" fill="#3A739B" xlink:href="#path-1"></use>
                <path d="M103.078243,58.9599535 L69.0606427,58.9599535 C61.2198427,58.9599535 55.0782427,65.2863535 55.0782427,73.3599535 C55.0782427,74.6847535 56.1534427,75.7599535 57.4782427,75.7599535 C58.8030427,75.7599535 59.8782427,74.6847535 59.8782427,73.3599535 C59.8782427,67.8879535 63.8262427,63.7599535 69.0606427,63.7599535 L103.078243,63.7599535 C109.695043,63.7599535 115.078243,69.1431535 115.078243,75.7599535 L115.078243,90.1599535 C115.078243,96.7767535 109.695043,102.159953 103.078243,102.159953 L69.0606427,102.159953 C61.1454427,102.159953 59.8782427,101.019953 59.8782427,97.3599535 C59.8782427,96.0351535 58.8030427,94.9599535 57.4782427,94.9599535 C56.1534427,94.9599535 55.0782427,96.0351535 55.0782427,97.3599535 C55.0782427,106.959953 63.4926427,106.959953 69.0606427,106.959953 L103.078243,106.959953 C112.342243,106.959953 119.878243,99.4239535 119.878243,90.1599535 L119.878243,75.7599535 C119.878243,66.4959535 112.342243,58.9599535 103.078243,58.9599535" id="Fill-941-Copy" stroke="#ED970F" stroke-width="5" fill="#4B95C9" mask="url(#mask-2)">
                    <g transform="translate(87.478243, 82.959953) rotate(59.000000) translate(-87.478243, -82.959953) "></g>
                </path>
                <path d="M86.6359733,134.475446 C82.3472406,130.135561 82.3548132,123.091554 86.6359733,118.759331 L158.609563,45.9273 C162.898295,41.5874148 169.859277,41.5950778 174.140437,45.9273 L246.114027,118.759331 C250.402759,123.099217 250.395187,130.143224 246.114027,134.475446 L174.140437,207.307477 C169.851705,211.647362 162.890723,211.639699 158.609563,207.307477 L86.6359733,134.475446 L86.6359733,134.475446 Z" id="Rectangle-46-Copy" stroke="#4B95C9" stroke-width="2" fill="#6EABD5" mask="url(#mask-2)"></path>
                <path d="M-103.114027,134.475446 C-107.402759,130.135561 -107.395187,123.091554 -103.114027,118.759331 L-31.1404375,45.9273 C-26.8517048,41.5874148 -19.8907226,41.5950778 -15.6095625,45.9273 L56.3640267,118.759331 C60.6527594,123.099217 60.6451868,130.143224 56.3640267,134.475446 L-15.6095625,207.307477 C-19.8982952,211.647362 -26.8592774,211.639699 -31.1404375,207.307477 L-103.114027,134.475446 L-103.114027,134.475446 Z" id="Rectangle-46-Copy-2" stroke="#4B95C9" stroke-width="2" fill="#6EABD5" mask="url(#mask-2)"></path>
                <path d="M-10.7862896,166.084072 L46.2722793,108.344955 L140.691764,184.800187 C140.691764,184.800187 -15.0674497,170.416294 -10.7862896,166.084072 Z" id="Rectangle-46-Copy-3" fill-opacity="0.05" fill="#000000" mask="url(#mask-2)"></path>
                <path d="M4.21371042,166.084072 L61.2722793,108.344955 L155.691764,184.800187 C155.691764,184.800187 -0.0674496709,170.416294 4.21371042,166.084072 Z" id="shadow" fill-opacity="0.05" fill="#000000" mask="url(#mask-2)">
                    <g transform="translate(79.909405, 146.572571) scale(-1, 1) translate(-79.909405, -146.572571) "></g>
                </path>
                <path d="M-6.86402671,184.565841 C-11.1527594,180.225956 -11.1451868,173.181949 -6.86402671,168.849727 L65.1095625,96.0176955 C69.3982952,91.6778103 76.3592774,91.6854732 80.6404375,96.0176955 L152.614027,168.849727 C156.902759,173.189612 156.895187,180.233619 152.614027,184.565841 L80.6404375,257.397873 C76.3517048,261.737758 69.3907226,261.730095 65.1095625,257.397873 L-6.86402671,184.565841 L-6.86402671,184.565841 Z" id="Rectangle-46" stroke="#4B95C9" stroke-width="2" fill="#6EABD5" mask="url(#mask-2)"></path>
            </g>
            <g id="link-copy-2" transform="translate(77.215977, 87.636909) rotate(62.000000) translate(-77.215977, -87.636909) translate(20.215977, 42.136909)" stroke-width="5" fill="#231F1F">
                <path d="M70.5806332,62.2863009 C69.2558332,62.2863009 68.1806332,63.3615009 68.1806332,64.6863009 C68.1806332,68.3463009 66.9134332,69.4863009 58.9982332,69.4863009 L24.9806332,69.4863009 C18.3638332,69.4863009 12.9806332,64.1031009 12.9806332,57.4863009 L12.9806332,43.0863009 C12.9806332,36.4695009 18.3638332,31.0863009 24.9806332,31.0863009 L58.9982332,31.0863009 C64.2326332,31.0863009 68.1806332,35.2143009 68.1806332,40.6863009 C68.1806332,42.0111009 69.2558332,43.0863009 70.5806332,43.0863009 C71.9054332,43.0863009 72.9806332,42.0111009 72.9806332,40.6863009 C72.9806332,32.6127009 66.8390332,26.2863009 58.9982332,26.2863009 L24.9806332,26.2863009 C15.7166332,26.2863009 8.18063315,33.8223009 8.18063315,43.0863009 L8.18063315,57.4863009 C8.18063315,66.7503009 15.7166332,74.2863009 24.9806332,74.2863009 L58.9982332,74.2863009 C64.5662332,74.2863009 72.9806332,74.2863009 72.9806332,64.6863009 C72.9806332,63.3615009 71.9054332,62.2863009 70.5806332,62.2863009" id="Fill-942" stroke="#ED970F" transform="translate(40.580633, 50.286301) rotate(-45.000000) translate(-40.580633, -50.286301) "></path>
                <path d="M45.1806332,20.6863009 C45.1806332,22.0111009 46.2558332,23.0863009 47.5806332,23.0863009 L114.780633,23.0863009 C116.105433,23.0863009 117.180633,22.0111009 117.180633,20.6863009 C117.180633,19.3615009 116.105433,18.2863009 114.780633,18.2863009 L47.5806332,18.2863009 C46.2558332,18.2863009 45.1806332,19.3615009 45.1806332,20.6863009" id="Fill-943" stroke="#FBB03B" transform="translate(81.180633, 20.686301) rotate(-30.000000) translate(-81.180633, -20.686301) "></path>
            </g>
        </g>
    </g>
</svg>