<?xml version="1.0" encoding="UTF-8" standalone="no"?>
<svg width="250px" height="250px" viewBox="0 0 250 250" version="1.1" xmlns="http://www.w3.org/2000/svg" xmlns:xlink="http://www.w3.org/1999/xlink">
    <defs></defs>
    <g id="Page-1" stroke="none" stroke-width="1" fill="none" fill-rule="evenodd">
        <g id="illustration/medium-wallet">
            <circle id="Oval-8" fill="#66BED4" cx="125" cy="125" r="125"></circle>
            <g id="medium-bitcoin-copy-2" transform="translate(100.000000, 66.000000)" stroke-linecap="round" stroke-linejoin="round">
                <path d="M50,25 C50,38.8067308 38.8067308,50 25,50 C11.1932692,50 0,38.8067308 0,25 C0,11.1932692 11.1932692,0 25,0 C38.8067308,0 50,11.1932692 50,25 L50,25 Z" id="Path" stroke="#ED970E" stroke-width="3" fill="#FBB03B"></path>
                <path d="M19.2307692,23.0769231 L28.8461538,23.0769231 L19.2307692,23.0769231 Z" id="Path" stroke="#A6721F" stroke-width="2"></path>
                <path d="M15.3846154,11.5384615 L28.8461538,11.5384615 C32.0326923,11.5384615 34.6153846,14.1211538 34.6153846,17.3076923 C34.6153846,20.4932692 32.0326923,23.0769231 28.8461538,23.0769231 C33.0942308,23.0769231 36.5384615,26.5211538 36.5384615,30.7692308 C36.5384615,35.0173077 33.0942308,38.4615385 28.8461538,38.4615385 L15.3846154,38.4615385" id="Path" stroke="#A6721F" stroke-width="2"></path>
                <path d="M23.0769231,38.4615385 L23.0769231,42.3076923 L23.0769231,38.4615385 Z" id="Path" stroke="#A6721F" stroke-width="2"></path>
                <path d="M23.0769231,7.69230769 L23.0769231,11.5384615 L23.0769231,7.69230769 Z" id="Path" stroke="#A6721F" stroke-width="2"></path>
                <path d="M19.2307692,7.69230769 L19.2307692,42.3076923 L19.2307692,7.69230769 Z" id="Path" stroke="#A6721F" stroke-width="2"></path>
            </g>
            <g id="medium-bitcoin-copy-3" transform="translate(130.000000, 26.000000)" stroke-linecap="round" stroke-linejoin="round">
                <path d="M50,25 C50,38.8067308 38.8067308,50 25,50 C11.1932692,50 0,38.8067308 0,25 C0,11.1932692 11.1932692,0 25,0 C38.8067308,0 50,11.1932692 50,25 L50,25 Z" id="Path" stroke="#ED970E" stroke-width="3" fill="#FBB03B"></path>
                <path d="M19.2307692,23.0769231 L28.8461538,23.0769231 L19.2307692,23.0769231 Z" id="Path" stroke="#A6721F" stroke-width="2"></path>
                <path d="M15.3846154,11.5384615 L28.8461538,11.5384615 C32.0326923,11.5384615 34.6153846,14.1211538 34.6153846,17.3076923 C34.6153846,20.4932692 32.0326923,23.0769231 28.8461538,23.0769231 C33.0942308,23.0769231 36.5384615,26.5211538 36.5384615,30.7692308 C36.5384615,35.0173077 33.0942308,38.4615385 28.8461538,38.4615385 L15.3846154,38.4615385" id="Path" stroke="#A6721F" stroke-width="2"></path>
                <path d="M23.0769231,38.4615385 L23.0769231,42.3076923 L23.0769231,38.4615385 Z" id="Path" stroke="#A6721F" stroke-width="2"></path>
                <path d="M23.0769231,7.69230769 L23.0769231,11.5384615 L23.0769231,7.69230769 Z" id="Path" stroke="#A6721F" stroke-width="2"></path>
                <path d="M19.2307692,7.69230769 L19.2307692,42.3076923 L19.2307692,7.69230769 Z" id="Path" stroke="#A6721F" stroke-width="2"></path>
            </g>
            <g id="medium-bitcoin-copy-4" transform="translate(70.000000, 18.000000)" stroke-linecap="round" stroke-linejoin="round">
                <path d="M50,25 C50,38.8067308 38.8067308,50 25,50 C11.1932692,50 0,38.8067308 0,25 C0,11.1932692 11.1932692,0 25,0 C38.8067308,0 50,11.1932692 50,25 L50,25 Z" id="Path" stroke="#ED970E" stroke-width="3" fill="#FBB03B"></path>
                <path d="M19.2307692,23.0769231 L28.8461538,23.0769231 L19.2307692,23.0769231 Z" id="Path" stroke="#A6721F" stroke-width="2"></path>
                <path d="M15.3846154,11.5384615 L28.8461538,11.5384615 C32.0326923,11.5384615 34.6153846,14.1211538 34.6153846,17.3076923 C34.6153846,20.4932692 32.0326923,23.0769231 28.8461538,23.0769231 C33.0942308,23.0769231 36.5384615,26.5211538 36.5384615,30.7692308 C36.5384615,35.0173077 33.0942308,38.4615385 28.8461538,38.4615385 L15.3846154,38.4615385" id="Path" stroke="#A6721F" stroke-width="2"></path>
                <path d="M23.0769231,38.4615385 L23.0769231,42.3076923 L23.0769231,38.4615385 Z" id="Path" stroke="#A6721F" stroke-width="2"></path>
                <path d="M23.0769231,7.69230769 L23.0769231,11.5384615 L23.0769231,7.69230769 Z" id="Path" stroke="#A6721F" stroke-width="2"></path>
                <path d="M19.2307692,7.69230769 L19.2307692,42.3076923 L19.2307692,7.69230769 Z" id="Path" stroke="#A6721F" stroke-width="2"></path>
            </g>
            <g id="medium-bitcoin-copy" transform="translate(70.000000, 86.000000)" stroke-linecap="round" stroke-linejoin="round">
                <path d="M50,25 C50,38.8067308 38.8067308,50 25,50 C11.1932692,50 0,38.8067308 0,25 C0,11.1932692 11.1932692,0 25,0 C38.8067308,0 50,11.1932692 50,25 L50,25 Z" id="Path" stroke="#ED970E" stroke-width="3" fill="#FBB03B"></path>
                <path d="M19.2307692,23.0769231 L28.8461538,23.0769231 L19.2307692,23.0769231 Z" id="Path" stroke="#A6721F" stroke-width="2"></path>
                <path d="M15.3846154,11.5384615 L28.8461538,11.5384615 C32.0326923,11.5384615 34.6153846,14.1211538 34.6153846,17.3076923 C34.6153846,20.4932692 32.0326923,23.0769231 28.8461538,23.0769231 C33.0942308,23.0769231 36.5384615,26.5211538 36.5384615,30.7692308 C36.5384615,35.0173077 33.0942308,38.4615385 28.8461538,38.4615385 L15.3846154,38.4615385" id="Path" stroke="#A6721F" stroke-width="2"></path>
                <path d="M23.0769231,38.4615385 L23.0769231,42.3076923 L23.0769231,38.4615385 Z" id="Path" stroke="#A6721F" stroke-width="2"></path>
                <path d="M23.0769231,7.69230769 L23.0769231,11.5384615 L23.0769231,7.69230769 Z" id="Path" stroke="#A6721F" stroke-width="2"></path>
                <path d="M19.2307692,7.69230769 L19.2307692,42.3076923 L19.2307692,7.69230769 Z" id="Path" stroke="#A6721F" stroke-width="2"></path>
            </g>
            <g id="icons/wallet" transform="translate(61.000000, 114.000000)">
                <rect id="Rectangle-14" fill="#2B7AA0" x="6.94031431" y="0" width="120.067438" height="85" rx="4.55"></rect>
                <rect id="Rectangle-14-Copy" fill="#4B95C9" x="0" y="0" width="120.067438" height="85" rx="4.55"></rect>
                <rect id="Rectangle-17" stroke="#2C7CA2" stroke-width="2" stroke-dasharray="10,10" x="6.94031431" y="7.34567901" width="105.145762" height="69.2592593" rx="1.4"></rect>
                <rect id="Rectangle-16" fill="#2B7AA1" x="86.7539289" y="30.781893" width="40.253823" height="23.0864198"></rect>
                <ellipse id="Oval-7" fill="#4BA0C9" cx="100.634558" cy="42.3251029" rx="6.24628288" ry="6.2962963"></ellipse>
                <path d="M64,35.7648 C64,31.4472 60.336,27.8 56,27.8 C51.664,27.8 48,31.4632 48,35.8 C48,38.6016 49.5096,41.2136 51.8936,42.6208 L48.8168,57.2352 C48.7672,57.4712 48.8272,57.7168 48.9792,57.904 C49.1312,58.0912 49.3592,58.2 49.6,58.2 L63.2,58.2 C63.448,58.2 63.6816,58.0848 63.8336,57.888 C63.9848,57.692 64.0368,57.436 63.9736,57.1968 L60.1336,42.6048 C62.5024,41.192 64,38.576 64,35.7648" id="Fill-853-Copy-2" fill="#404A53"></path>
            </g>
        </g>
    </g>
</svg>