<?xml version="1.0" encoding="UTF-8" standalone="no"?>
<svg width="250px" height="250px" viewBox="0 0 250 250" version="1.1" xmlns="http://www.w3.org/2000/svg" xmlns:xlink="http://www.w3.org/1999/xlink">
    <defs></defs>
    <g id="Page-1" stroke="none" stroke-width="1" fill="none" fill-rule="evenodd">
        <g id="illustration/medium-refund">
            <circle id="Oval-1" fill="#66BED4" cx="125" cy="125" r="125"></circle>
            <g id="throw" transform="translate(143.000000, 129.000000)" fill="#FFFFFF">
                <ellipse id="Oval-2-Copy" cx="6.75" cy="6.87327189" rx="6.75" ry="6.78110599"></ellipse>
                <ellipse id="Oval-2-Copy-2" cx="21.75" cy="31.9884793" rx="6.75" ry="6.78110599"></ellipse>
                <ellipse id="Oval-2-Copy-3" cx="30.75" cy="57.1036866" rx="6.75" ry="6.78110599"></ellipse>
                <ellipse id="Oval-2-Copy-4" cx="31.25" cy="82.218894" rx="6.75" ry="6.78110599"></ellipse>
            </g>
            <g id="medium-bitcoin-copy-5" transform="translate(88.000000, 99.000000)" stroke-linecap="round" stroke-linejoin="round">
                <path d="M50,25 C50,38.8067308 38.8067308,50 25,50 C11.1932692,50 0,38.8067308 0,25 C0,11.1932692 11.1932692,0 25,0 C38.8067308,0 50,11.1932692 50,25 L50,25 Z" id="Path" stroke="#ED970E" stroke-width="3" fill="#FBB03B"></path>
                <path d="M19.2307692,23.0769231 L28.8461538,23.0769231 L19.2307692,23.0769231 Z" id="Path" stroke="#A6721F" stroke-width="2"></path>
                <path d="M15.3846154,11.5384615 L28.8461538,11.5384615 C32.0326923,11.5384615 34.6153846,14.1211538 34.6153846,17.3076923 C34.6153846,20.4932692 32.0326923,23.0769231 28.8461538,23.0769231 C33.0942308,23.0769231 36.5384615,26.5211538 36.5384615,30.7692308 C36.5384615,35.0173077 33.0942308,38.4615385 28.8461538,38.4615385 L15.3846154,38.4615385" id="Path" stroke="#A6721F" stroke-width="2"></path>
                <path d="M23.0769231,38.4615385 L23.0769231,42.3076923 L23.0769231,38.4615385 Z" id="Path" stroke="#A6721F" stroke-width="2"></path>
                <path d="M23.0769231,7.69230769 L23.0769231,11.5384615 L23.0769231,7.69230769 Z" id="Path" stroke="#A6721F" stroke-width="2"></path>
                <path d="M19.2307692,7.69230769 L19.2307692,42.3076923 L19.2307692,7.69230769 Z" id="Path" stroke="#A6721F" stroke-width="2"></path>
            </g>
            <g id="medium-bitcoin-copy-9" transform="translate(86.000000, 13.000000)" stroke-linecap="round" stroke-linejoin="round">
                <path d="M50,25 C50,38.8067308 38.8067308,50 25,50 C11.1932692,50 0,38.8067308 0,25 C0,11.1932692 11.1932692,0 25,0 C38.8067308,0 50,11.1932692 50,25 L50,25 Z" id="Path" stroke="#ED970E" stroke-width="3" fill="#FBB03B"></path>
                <path d="M19.2307692,23.0769231 L28.8461538,23.0769231 L19.2307692,23.0769231 Z" id="Path" stroke="#A6721F" stroke-width="2"></path>
                <path d="M15.3846154,11.5384615 L28.8461538,11.5384615 C32.0326923,11.5384615 34.6153846,14.1211538 34.6153846,17.3076923 C34.6153846,20.4932692 32.0326923,23.0769231 28.8461538,23.0769231 C33.0942308,23.0769231 36.5384615,26.5211538 36.5384615,30.7692308 C36.5384615,35.0173077 33.0942308,38.4615385 28.8461538,38.4615385 L15.3846154,38.4615385" id="Path" stroke="#A6721F" stroke-width="2"></path>
                <path d="M23.0769231,38.4615385 L23.0769231,42.3076923 L23.0769231,38.4615385 Z" id="Path" stroke="#A6721F" stroke-width="2"></path>
                <path d="M23.0769231,7.69230769 L23.0769231,11.5384615 L23.0769231,7.69230769 Z" id="Path" stroke="#A6721F" stroke-width="2"></path>
                <path d="M19.2307692,7.69230769 L19.2307692,42.3076923 L19.2307692,7.69230769 Z" id="Path" stroke="#A6721F" stroke-width="2"></path>
            </g>
            <g id="medium-bitcoin-copy-7" transform="translate(68.000000, 49.000000)" stroke-linecap="round" stroke-linejoin="round">
                <path d="M50,25 C50,38.8067308 38.8067308,50 25,50 C11.1932692,50 0,38.8067308 0,25 C0,11.1932692 11.1932692,0 25,0 C38.8067308,0 50,11.1932692 50,25 L50,25 Z" id="Path" stroke="#ED970E" stroke-width="3" fill="#FBB03B"></path>
                <path d="M19.2307692,23.0769231 L28.8461538,23.0769231 L19.2307692,23.0769231 Z" id="Path" stroke="#A6721F" stroke-width="2"></path>
                <path d="M15.3846154,11.5384615 L28.8461538,11.5384615 C32.0326923,11.5384615 34.6153846,14.1211538 34.6153846,17.3076923 C34.6153846,20.4932692 32.0326923,23.0769231 28.8461538,23.0769231 C33.0942308,23.0769231 36.5384615,26.5211538 36.5384615,30.7692308 C36.5384615,35.0173077 33.0942308,38.4615385 28.8461538,38.4615385 L15.3846154,38.4615385" id="Path" stroke="#A6721F" stroke-width="2"></path>
                <path d="M23.0769231,38.4615385 L23.0769231,42.3076923 L23.0769231,38.4615385 Z" id="Path" stroke="#A6721F" stroke-width="2"></path>
                <path d="M23.0769231,7.69230769 L23.0769231,11.5384615 L23.0769231,7.69230769 Z" id="Path" stroke="#A6721F" stroke-width="2"></path>
                <path d="M19.2307692,7.69230769 L19.2307692,42.3076923 L19.2307692,7.69230769 Z" id="Path" stroke="#A6721F" stroke-width="2"></path>
            </g>
            <g id="medium-bitcoin-copy-10" transform="translate(28.000000, 59.000000)" stroke-linecap="round" stroke-linejoin="round">
                <path d="M50,25 C50,38.8067308 38.8067308,50 25,50 C11.1932692,50 0,38.8067308 0,25 C0,11.1932692 11.1932692,0 25,0 C38.8067308,0 50,11.1932692 50,25 L50,25 Z" id="Path" stroke="#ED970E" stroke-width="3" fill="#FBB03B"></path>
                <path d="M19.2307692,23.0769231 L28.8461538,23.0769231 L19.2307692,23.0769231 Z" id="Path" stroke="#A6721F" stroke-width="2"></path>
                <path d="M15.3846154,11.5384615 L28.8461538,11.5384615 C32.0326923,11.5384615 34.6153846,14.1211538 34.6153846,17.3076923 C34.6153846,20.4932692 32.0326923,23.0769231 28.8461538,23.0769231 C33.0942308,23.0769231 36.5384615,26.5211538 36.5384615,30.7692308 C36.5384615,35.0173077 33.0942308,38.4615385 28.8461538,38.4615385 L15.3846154,38.4615385" id="Path" stroke="#A6721F" stroke-width="2"></path>
                <path d="M23.0769231,38.4615385 L23.0769231,42.3076923 L23.0769231,38.4615385 Z" id="Path" stroke="#A6721F" stroke-width="2"></path>
                <path d="M23.0769231,7.69230769 L23.0769231,11.5384615 L23.0769231,7.69230769 Z" id="Path" stroke="#A6721F" stroke-width="2"></path>
                <path d="M19.2307692,7.69230769 L19.2307692,42.3076923 L19.2307692,7.69230769 Z" id="Path" stroke="#A6721F" stroke-width="2"></path>
            </g>
            <g id="medium-bitcoin-copy-8" transform="translate(48.000000, 99.000000)" stroke-linecap="round" stroke-linejoin="round">
                <path d="M50,25 C50,38.8067308 38.8067308,50 25,50 C11.1932692,50 0,38.8067308 0,25 C0,11.1932692 11.1932692,0 25,0 C38.8067308,0 50,11.1932692 50,25 L50,25 Z" id="Path" stroke="#ED970E" stroke-width="3" fill="#FBB03B"></path>
                <path d="M19.2307692,23.0769231 L28.8461538,23.0769231 L19.2307692,23.0769231 Z" id="Path" stroke="#A6721F" stroke-width="2"></path>
                <path d="M15.3846154,11.5384615 L28.8461538,11.5384615 C32.0326923,11.5384615 34.6153846,14.1211538 34.6153846,17.3076923 C34.6153846,20.4932692 32.0326923,23.0769231 28.8461538,23.0769231 C33.0942308,23.0769231 36.5384615,26.5211538 36.5384615,30.7692308 C36.5384615,35.0173077 33.0942308,38.4615385 28.8461538,38.4615385 L15.3846154,38.4615385" id="Path" stroke="#A6721F" stroke-width="2"></path>
                <path d="M23.0769231,38.4615385 L23.0769231,42.3076923 L23.0769231,38.4615385 Z" id="Path" stroke="#A6721F" stroke-width="2"></path>
                <path d="M23.0769231,7.69230769 L23.0769231,11.5384615 L23.0769231,7.69230769 Z" id="Path" stroke="#A6721F" stroke-width="2"></path>
                <path d="M19.2307692,7.69230769 L19.2307692,42.3076923 L19.2307692,7.69230769 Z" id="Path" stroke="#A6721F" stroke-width="2"></path>
            </g>
            <g id="medium-bitcoin-copy-6" transform="translate(108.000000, 69.000000)" stroke-linecap="round" stroke-linejoin="round">
                <path d="M50,25 C50,38.8067308 38.8067308,50 25,50 C11.1932692,50 0,38.8067308 0,25 C0,11.1932692 11.1932692,0 25,0 C38.8067308,0 50,11.1932692 50,25 L50,25 Z" id="Path" stroke="#ED970E" stroke-width="3" fill="#FBB03B"></path>
                <path d="M19.2307692,23.0769231 L28.8461538,23.0769231 L19.2307692,23.0769231 Z" id="Path" stroke="#A6721F" stroke-width="2"></path>
                <path d="M15.3846154,11.5384615 L28.8461538,11.5384615 C32.0326923,11.5384615 34.6153846,14.1211538 34.6153846,17.3076923 C34.6153846,20.4932692 32.0326923,23.0769231 28.8461538,23.0769231 C33.0942308,23.0769231 36.5384615,26.5211538 36.5384615,30.7692308 C36.5384615,35.0173077 33.0942308,38.4615385 28.8461538,38.4615385 L15.3846154,38.4615385" id="Path" stroke="#A6721F" stroke-width="2"></path>
                <path d="M23.0769231,38.4615385 L23.0769231,42.3076923 L23.0769231,38.4615385 Z" id="Path" stroke="#A6721F" stroke-width="2"></path>
                <path d="M23.0769231,7.69230769 L23.0769231,11.5384615 L23.0769231,7.69230769 Z" id="Path" stroke="#A6721F" stroke-width="2"></path>
                <path d="M19.2307692,7.69230769 L19.2307692,42.3076923 L19.2307692,7.69230769 Z" id="Path" stroke="#A6721F" stroke-width="2"></path>
            </g>
        </g>
    </g>
</svg>