<?xml version="1.0" encoding="UTF-8" standalone="no"?>
<svg width="96px" height="96px" viewBox="0 0 96 96" version="1.1" xmlns="http://www.w3.org/2000/svg" xmlns:xlink="http://www.w3.org/1999/xlink">
    <defs></defs>
    <g id="Page-1" stroke="none" stroke-width="1" fill="none" fill-rule="evenodd">
        <g id="step4" transform="translate(-464.000000, -324.000000)">
            <g id="modal" transform="translate(241.000000, 292.000000)">
                <g id="icons/wallet" transform="translate(223.000000, 32.000000)">
                    <circle id="Oval-3" fill="#4BA0C9" cx="48" cy="48" r="48"></circle>
                    <g id="wallet_coins" transform="translate(24.000000, 20.000000)" fill="#FCFDFD">
                        <path d="M32,16 C27.589,16 24,12.411 24,8 C24,3.589 27.589,0 32,0 C36.411,0 40,3.589 40,8 C40,12.411 36.411,16 32,16 L32,16 Z M32,2 C28.691,2 26,4.691 26,8 C26,11.309 28.691,14 32,14 C35.309,14 38,11.309 38,8 C38,4.691 35.309,2 32,2 L32,2 Z" id="Fill-113"></path>
                        <path d="M46,24.102 L46,24 C46,20.691 43.309,18 40,18 L26,18 C26,13.589 22.411,10 18,10 C13.589,10 10,13.589 10,18 L6,18 C2.691,18 0,20.691 0,24 L0,50 C0,53.309 2.691,56 6,56 L40,56 C43.309,56 46,53.309 46,50 L46,47.92 C45.673,47.967 45.341,48 45,48 L35,48 C30.037,48 26,43.963 26,39 C26,34.037 30.037,30 35,30 L46,30 L46,26.185 C47.161,26.599 48,27.698 48,29 C48,30.654 46.654,32 45,32 L35,32 C31.141,32 28,35.141 28,39 C28,42.859 31.141,46 35,46 L45,46 C47.757,46 50,43.757 50,41 L50,29 C50,26.586 48.279,24.565 46,24.102 L46,24.102 Z M18,12 C21.309,12 24,14.691 24,18 C24,19.492 23.452,20.898 22.462,22 L13.537,22 C12.547,20.898 12,19.495 12,18 C12,14.691 14.691,12 18,12 L18,12 Z M2.557,22 C3.25,20.81 4.525,20 6,20 L10.26,20 C10.44,20.702 10.713,21.373 11.076,22 L2.557,22 L2.557,22 Z M40,22 L24.922,22 C25.286,21.373 25.56,20.702 25.74,20 L40,20 C42.033,20 43.697,21.528 43.949,23.494 C42.893,22.566 41.513,22 40,22 L40,22 Z M35,42 C33.346,42 32,40.654 32,39 C32,37.346 33.346,36 35,36 C36.654,36 38,37.346 38,39 C38,40.654 36.654,42 35,42 L35,42 Z" id="Fill-114"></path>
                    </g>
                </g>
            </g>
        </g>
    </g>
</svg>