<?xml version="1.0" encoding="UTF-8" standalone="no"?>
<svg width="34px" height="28px" viewBox="0 0 34 28" version="1.1" xmlns="http://www.w3.org/2000/svg" xmlns:xlink="http://www.w3.org/1999/xlink">
    <defs></defs>
    <g id="Page-1" stroke="none" stroke-width="1" fill="none" fill-rule="evenodd" stroke-linecap="round" stroke-linejoin="round">
        <g id="dash" transform="translate(-547.000000, -344.000000)" stroke="#666666" stroke-width="2">
            <g id="escrow-address" transform="translate(547.000000, 345.000000)">
                <g id="icons/small/wallet" transform="translate(1.000000, 0.000000)">
                    <path d="M28.952381,4.58823529 C30.6354286,4.58823529 32,5.95782353 32,7.64705882 C32,9.33629412 30.6354286,10.7058824 28.952381,10.7058824 L23.6190476,10.7058824 C21.5146667,10.7058824 19.8095238,12.4172941 19.8095238,14.5294118 C19.8095238,16.6415294 21.5146667,18.3529412 23.6190476,18.3529412 L28.952381,18.3529412 C30.6354286,18.3529412 32,16.9833529 32,15.2941176 L32,8.24123529" id="Path"></path>
                    <path d="M28.952381,18.3529412 L28.952381,22.9411765 C28.952381,24.583 27.5413333,26 25.9047619,26 L3.04761905,26 C1.41180952,26 0,24.583 0,22.9411765 L0,3.05882353 C0,1.41623529 1.41180952,0 3.04761905,0 L25.9047619,0 C27.5413333,0 28.952381,1.41623529 28.952381,3.05882353 L28.952381,5.35294118" id="Path"></path>
                    <path d="M28.952381,10.7058824 L28.952381,6.11764706 C28.952381,4.47505882 27.5413333,3.05882353 25.9047619,3.05882353 L3.04761905,3.05882353" id="Path"></path>
                    <path d="M24.3809524,14.5294118 C24.3809524,14.9522941 24.039619,15.2941176 23.6190476,15.2941176 C23.1977143,15.2941176 22.8571429,14.9522941 22.8571429,14.5294118 C22.8571429,14.1065294 23.1977143,13.7647059 23.6190476,13.7647059 C24.039619,13.7647059 24.3809524,14.1065294 24.3809524,14.5294118 L24.3809524,14.5294118 Z" id="Path"></path>
                </g>
            </g>
        </g>
    </g>
</svg>