<?xml version="1.0" encoding="UTF-8" standalone="no"?>
<svg width="23px" height="30px" viewBox="0 0 23 30" version="1.1" xmlns="http://www.w3.org/2000/svg" xmlns:xlink="http://www.w3.org/1999/xlink">
    <defs></defs>
    <g id="buyersteps" stroke="none" stroke-width="1" fill="none" fill-rule="evenodd">
        <g id="step1" transform="translate(-55.000000, -862.000000)" stroke="#4BA0C9" fill="#4BA0C9">
            <g id="more-security" transform="translate(53.000000, 585.000000)">
                <g id="icons/apple" transform="translate(2.000000, 277.000000)">
                    <path d="M22.258872,11.2854977 C20.5996367,8.84468174 18.0150672,8.51031048 17.0939808,8.47165452 C14.8943742,8.24776054 12.8020143,9.77353395 11.685633,9.77353395 C10.5721204,9.77353395 8.84949695,8.50476443 7.02525394,8.53809618 C4.62775938,8.57392366 2.41711911,9.93952718 1.18262291,12.0981047 C-1.30838156,16.4433782 0.544714358,22.8807877 2.97255137,26.4049133 C4.15888583,28.1297898 5.57350583,30.0674128 7.43084969,29.9981981 C9.21945412,29.9264322 9.89581482,28.8346926 12.0582934,28.8346926 C14.2207719,28.8346926 14.8285035,29.9981981 16.7214308,29.9624815 C18.6460797,29.9265431 19.865515,28.2044396 21.0436294,26.4741279 C22.4060052,24.4728918 22.9669543,22.5353798 23,22.4358836 C22.9572447,22.4163061 19.2468601,20.9873667 19.2096768,16.6920076 C19.1739831,13.0958388 22.1269099,11.3711841 22.258872,11.2854977 Z" id="Apple-Logo"></path>
                    <path d="M17.005938,0 C15.5269031,0.0636911157 13.734064,1.04196964 12.672956,2.35651051 C11.7207401,3.52264135 10.8873572,5.38384404 11.1106576,7.17090249 C12.7617935,7.3072185 14.4472347,6.28348105 15.4751866,4.96894018 C16.5019318,3.65142139 17.1949906,1.82352283 17.005938,0 Z" id="Path"></path>
                </g>
            </g>
        </g>
    </g>
</svg>