<?xml version="1.0" encoding="UTF-8" standalone="no"?>
<svg width="44px" height="44px" viewBox="0 0 44 44" version="1.1" xmlns="http://www.w3.org/2000/svg" xmlns:xlink="http://www.w3.org/1999/xlink">
    <defs></defs>
    <g id="Page-1" stroke="none" stroke-width="1" fill="none" fill-rule="evenodd">
        <rect id="Rectangle-14" fill="#4BA0C9" x="-618" y="-184" width="1529" height="999"></rect>
        <g id="barbed_wire" stroke="#FFFFFF" stroke-width="2" stroke-linecap="round" stroke-linejoin="round">
            <path d="M22,41 C12.611,41 5,33.389 5,24 C5,14.611 12.611,7 22,7 C31.389,7 39,14.611 39,24 C39,29.188 36.664,33.882 33,37" id="Path"></path>
            <path d="M43,19 L39,21 L35,19" id="Path"></path>
            <path d="M41,25 L37,23 L41,25 Z" id="Path"></path>
            <path d="M43,29 L39,27 L35,29" id="Path"></path>
            <path d="M1,29 L5,27 L9,29" id="Path"></path>
            <path d="M3,23 L7,25 L3,23 Z" id="Path"></path>
            <path d="M1,19 L5,21 L9,19" id="Path"></path>
            <path d="M17,3 L19.667,6.04 L17,11" id="Path"></path>
            <path d="M23,5 L21,9 L23,5 Z" id="Path"></path>
            <path d="M27,3 L25,7 L27,11" id="Path"></path>
            <path d="M1,41 L11,41 L1,41 Z" id="Path"></path>
            <path d="M22,41 L43,41 L22,41 Z" id="Path"></path>
        </g>
    </g>
</svg>