<?xml version="1.0" encoding="UTF-8" standalone="no"?>
<svg width="58px" height="58px" viewBox="0 0 58 58" version="1.1" xmlns="http://www.w3.org/2000/svg" xmlns:xlink="http://www.w3.org/1999/xlink">
    <defs></defs>
    <g id="Page-1" stroke="none" stroke-width="1" fill="none" fill-rule="evenodd">
        <g id="Desktop-Copy-3" transform="translate(-113.000000, -243.000000)">
            <g id="icons/bitcoin" transform="translate(114.000000, 244.000000)">
                <path d="M31.053,56 C17.522,56 6.553,43.464 6.553,28 C6.553,12.536 17.522,0 31.053,0 C44.584,0 55.553,12.536 55.553,28 C55.553,43.464 44.584,56 31.053,56 L31.053,56 Z" id="Fill-157" fill="#D0E8F9"></path>
                <path d="M31.053,56 C17.522,56 6.553,43.464 6.553,28 C6.553,12.536 17.522,0 31.053,0 C44.584,0 55.553,12.536 55.553,28 C55.553,43.464 44.584,56 31.053,56 L31.053,56 Z" id="Stroke-158" stroke="#0096E6" stroke-width="2" stroke-linecap="round"></path>
                <path d="M6.553,28 C6.553,13.698 15.938,1.908 28.053,0.216 C27.069,0.079 26.069,0 25.053,0 C11.522,0 0.553,12.536 0.553,28 C0.553,43.464 11.522,56 25.053,56 C26.069,56 27.069,55.921 28.053,55.784 C15.938,54.092 6.553,42.302 6.553,28 L6.553,28 Z" id="Fill-159" fill="#FFFFFF"></path>
                <path d="M6.553,28 C6.553,13.698 15.938,1.908 28.053,0.216 C27.069,0.079 26.069,0 25.053,0 C11.522,0 0.553,12.536 0.553,28 C0.553,43.464 11.522,56 25.053,56 C26.069,56 27.069,55.921 28.053,55.784 C15.938,54.092 6.553,42.302 6.553,28 L6.553,28 Z" id="Stroke-160" stroke="#0096E6" stroke-width="2" stroke-linecap="round"></path>
                <path d="M6.553,30 L0.692,30 M6.692,25 L0.692,25 M7.325,35 L1.325,35 M8.912,40 L2.911,40 M7.553,20 L1.553,20 M9.348,15 L3.348,15 M13.057,9 L7.057,9 M18.367,4 L12.427,4 M12.286,46 L6.286,46 M17.086,51 L11.077,51" id="Stroke-161" stroke="#0096E6" stroke-width="2" stroke-linecap="round"></path>
                <path d="M31.053,49.524 C20.652,49.524 12.22,39.887 12.22,28 C12.22,16.113 20.652,6.476 31.053,6.476 C41.454,6.476 49.886,16.113 49.886,28 C49.886,39.887 41.454,49.524 31.053,49.524 L31.053,49.524 Z" id="Stroke-162" stroke="#0096E6" stroke-width="2" stroke-linecap="round" stroke-dasharray="1.983,5.948"></path>
                <g id="B" transform="translate(22.000000, 14.000000)" fill="#0096E6">
                    <path d="M15.954,12.084 C17.52,10.977 18.312,9.357 18.312,7.253 C18.312,5.468 17.705,3.956 16.509,2.759 C15.312,1.563 13.744,0.956 11.849,0.956 L1.745,0.956 C1.14,0.956 0.749,1.348 0.749,1.953 C0.749,2.559 1.14,2.951 1.745,2.951 L4.061,2.948 L4.064,23.151 L1.745,23.151 C1.14,23.151 0.749,23.542 0.749,24.148 C0.749,24.753 1.14,25.145 1.745,25.145 L13.174,25.145 C15.314,25.145 17.001,24.526 18.187,23.304 C19.369,22.086 19.968,20.509 19.968,18.616 C19.968,15.213 18.619,13.022 15.954,12.084 L15.954,12.084 Z M15.1,10.302 C14.285,11.147 13.276,11.557 12.015,11.557 L6.055,11.56 L6.053,2.956 C6.053,2.956 6.011,2.951 6.053,2.951 L11.849,2.951 C13.247,2.951 14.318,3.341 15.123,4.145 C15.927,4.95 16.318,5.945 16.318,7.187 C16.318,8.433 15.92,9.452 15.1,10.302 L15.1,10.302 Z M6.052,13.551 L13.174,13.551 C14.707,13.551 15.865,13.963 16.713,14.812 C17.562,15.661 17.974,16.819 17.974,18.351 C17.974,19.883 17.562,21.041 16.713,21.89 C15.865,22.739 14.707,23.151 13.174,23.151 L6.055,23.155 L6.053,13.557 C6.053,13.557 6.01,13.551 6.052,13.551 L6.052,13.551 Z" id="Fill-169"></path>
                    <path d="M10.053,19.457 L1.053,19.457 C0.503,19.457 0.053,19.007 0.053,18.457 C0.053,17.907 0.503,17.457 1.053,17.457 L10.053,17.457 C10.603,17.457 11.053,17.907 11.053,18.457 C11.053,19.007 10.603,19.457 10.053,19.457" id="Fill-171"></path>
                </g>
            </g>
        </g>
    </g>
</svg>