<?xml version="1.0" encoding="UTF-8" standalone="no"?>
<svg width="60px" height="58px" viewBox="0 0 60 58" version="1.1" xmlns="http://www.w3.org/2000/svg" xmlns:xlink="http://www.w3.org/1999/xlink">
    <defs></defs>
    <g id="Page-1" stroke="none" stroke-width="1" fill="none" fill-rule="evenodd">
        <g id="activedetail1a-copy" transform="translate(-193.000000, -155.000000)">
            <g id="icons/bluesafe" transform="translate(194.000000, 155.000000)">
                <path d="M29,3 L37,3 L37,55 L29,55 L29,3 Z" id="Fill-88" fill="#FFFFFF"></path>
                <path d="M29,3 L37,3 L37,55 L29,55 L29,3 Z" id="Stroke-89" stroke="#0096E6" stroke-width="2" stroke-linecap="round"></path>
                <path d="M29,6 L0.943,6 C0.422,6 0,6.422 0,6.944 L0,51.056 C0,51.578 0.422,52 0.943,52 L29,52 L29,6 L29,6 Z" id="Fill-90" fill="#FFFFFF"></path>
                <path d="M29,6 L0.943,6 C0.422,6 0,6.422 0,6.944 L0,51.056 C0,51.578 0.422,52 0.943,52 L29,52 L29,6 L29,6 Z" id="Stroke-91" stroke="#0096E6" stroke-width="2" stroke-linecap="round"></path>
                <path d="M45.889,6 L53,10 L53,48 L45.889,52 L57.057,52 C57.578,52 58,51.578 58,51.056 L58,6.944 C58,6.422 57.578,6 57.057,6 L45.889,6 L45.889,6 Z" id="Fill-92" fill="#FFFFFF"></path>
                <path d="M45.889,6 L53,10 L53,48 L45.889,52 L57.057,52 C57.578,52 58,51.578 58,51.056 L58,6.944 C58,6.422 57.578,6 57.057,6 L45.889,6 L45.889,6 Z" id="Stroke-93" stroke="#0096E6" stroke-width="2" stroke-linecap="round"></path>
                <path d="M37,1.118 L37,56.716 C37,56.806 37.097,56.862 37.175,56.818 L53,47.917 L53,9.917 L37.175,1.015 C37.097,0.971 37,1.028 37,1.118 L37,1.118 Z" id="Fill-98" fill="#D0E8F9"></path>
                <path d="M37,1.118 L37,56.716 C37,56.806 37.097,56.862 37.175,56.818 L53,47.917 L53,9.917 L37.175,1.015 C37.097,0.971 37,1.028 37,1.118 L37,1.118 Z" id="Stroke-99" stroke="#0096E6" stroke-width="2" stroke-linecap="round"></path>
                <path d="M29,10 L5.345,10 C4.602,10 4,10.602 4,11.345 L4,46.655 C4,47.398 4.602,48 5.345,48 L29,48 L29,10 L29,10 Z" id="Fill-100" fill="#D0E8F9"></path>
                <path d="M29,10 L5.345,10 C4.602,10 4,10.602 4,11.345 L4,46.655 C4,47.398 4.602,48 5.345,48 L29,48 L29,10 L29,10 Z" id="Stroke-101" stroke="#0096E6" stroke-width="2" stroke-linecap="round"></path>
                <path d="M52,15 L55,15 M52,18 L55,18 M52,40 L55,40 M52,43 L55,43" id="Stroke-102" stroke="#0096E6" stroke-width="2" stroke-linecap="round"></path>
                <path d="M2,52 L10,52 L10,56 L2,56 L2,52 Z" id="Fill-103" fill="#FFFFFF"></path>
                <path d="M2,52 L10,52 L10,56 L2,56 L2,52 Z" id="Stroke-104" stroke="#0096E6" stroke-width="2" stroke-linecap="round"></path>
                <path d="M48,52 L56,52 L56,56 L48,56 L48,52 Z" id="Fill-105" fill="#FFFFFF"></path>
                <path d="M48,52 L56,52 L56,56 L48,56 L48,52 Z" id="Stroke-106" stroke="#0096E6" stroke-width="2" stroke-linecap="round"></path>
                <path d="M34,5.917 C34,6.469 33.552,6.917 33,6.917 C32.448,6.917 32,6.469 32,5.917 C32,5.365 32.448,4.917 33,4.917 C33.552,4.917 34,5.365 34,5.917" id="Fill-107" fill="#0096E6"></path>
                <path d="M34,11.917 C34,12.469 33.552,12.917 33,12.917 C32.448,12.917 32,12.469 32,11.917 C32,11.365 32.448,10.917 33,10.917 C33.552,10.917 34,11.365 34,11.917" id="Fill-108" fill="#0096E6"></path>
                <path d="M34,45.917 C34,46.469 33.552,46.917 33,46.917 C32.448,46.917 32,46.469 32,45.917 C32,45.365 32.448,44.917 33,44.917 C33.552,44.917 34,45.365 34,45.917" id="Fill-109" fill="#0096E6"></path>
                <path d="M34,39.917 C34,40.469 33.552,40.917 33,40.917 C32.448,40.917 32,40.469 32,39.917 C32,39.365 32.448,38.917 33,38.917 C33.552,38.917 34,39.365 34,39.917" id="Fill-110" fill="#0096E6"></path>
                <path d="M34,17.917 C34,18.469 33.552,18.917 33,18.917 C32.448,18.917 32,18.469 32,17.917 C32,17.365 32.448,16.917 33,16.917 C33.552,16.917 34,17.365 34,17.917" id="Fill-111" fill="#0096E6"></path>
                <path d="M34,51.917 C34,52.469 33.552,52.917 33,52.917 C32.448,52.917 32,52.469 32,51.917 C32,51.365 32.448,50.917 33,50.917 C33.552,50.917 34,51.365 34,51.917" id="Fill-112" fill="#0096E6"></path>
                <path d="M40,34.917 C41.66,34.917 43.011,33.566 43.011,31.906 L43.011,25.927 C43.011,24.267 41.66,22.917 40,22.917 L40,34.917 Z M40,18.917 C43.866,18.917 47.011,22.061 47.011,25.927 L47.011,31.906 C47.011,35.772 43.866,38.917 40,38.917 L40,18.917 Z M4,22 L29,22 L29,35 L4,35 L4,22 Z" id="Stroke-113" stroke="#0096E6" stroke-width="2" stroke-linecap="round"></path>
                <path d="M8,13 L24,13 L24,22 L8,22 L8,13 Z" id="Fill-114" fill="#FFFFFF"></path>
                <path d="M8,13 L24,13 L24,22 L8,22 L8,13 Z" id="Stroke-115" stroke="#0096E6" stroke-width="2" stroke-linecap="round"></path>
                <path d="M14,13 L18,13 L18,22 L14,22 L14,13 Z" id="Fill-116" fill="#FFFFFF"></path>
                <path d="M14,13 L18,13 L18,22 L14,22 L14,13 Z" id="Stroke-117" stroke="#0096E6" stroke-width="2" stroke-linecap="round"></path>
                <path d="M8,16 L14,16 M8,19 L14,19 M18,16 L24,16 M18,19 L24,19" id="Stroke-118" stroke="#0096E6" stroke-width="2" stroke-linecap="round"></path>
                <path d="M8,26 L24,26 L24,35 L8,35 L8,26 Z" id="Fill-119" fill="#FFFFFF"></path>
                <path d="M8,26 L24,26 L24,35 L8,35 L8,26 Z" id="Stroke-120" stroke="#0096E6" stroke-width="2" stroke-linecap="round"></path>
                <path d="M14,26 L18,26 L18,35 L14,35 L14,26 Z" id="Fill-121" fill="#FFFFFF"></path>
                <path d="M14,26 L18,26 L18,35 L14,35 L14,26 Z" id="Stroke-122" stroke="#0096E6" stroke-width="2" stroke-linecap="round"></path>
                <path d="M8,29 L14,29 M8,32 L14,32 M18,29 L24,29 M18,32 L24,32" id="Stroke-123" stroke="#0096E6" stroke-width="2" stroke-linecap="round"></path>
                <path d="M8,39 L24,39 L24,48 L8,48 L8,39 Z" id="Fill-124" fill="#FFFFFF"></path>
                <path d="M8,39 L24,39 L24,48 L8,48 L8,39 Z" id="Stroke-125" stroke="#0096E6" stroke-width="2" stroke-linecap="round"></path>
                <path d="M14,39 L18,39 L18,48 L14,48 L14,39 Z" id="Fill-126" fill="#FFFFFF"></path>
                <path d="M14,39 L18,39 L18,48 L14,48 L14,39 Z" id="Stroke-127" stroke="#0096E6" stroke-width="2" stroke-linecap="round"></path>
                <path d="M8,42 L14,42 M8,45 L14,45 M18,42 L24,42 M18,45 L24,45" id="Stroke-128" stroke="#0096E6" stroke-width="2" stroke-linecap="round"></path>
            </g>
        </g>
    </g>
</svg>