<?xml version="1.0" encoding="UTF-8" standalone="no"?>
<svg width="44px" height="44px" viewBox="0 0 44 44" version="1.1" xmlns="http://www.w3.org/2000/svg" xmlns:xlink="http://www.w3.org/1999/xlink">
    <defs></defs>
    <g id="Page-1" stroke="none" stroke-width="1" fill="none" fill-rule="evenodd">
        <rect id="Rectangle-16" fill="#404A53" x="-525" y="-121" width="1529" height="723"></rect>
        <g id="laptop" stroke="#FFFFFF" stroke-width="2" stroke-linecap="round" stroke-linejoin="round">
            <path d="M41,33 L41,8 C41,6.343 39.657,5 38,5 L6,5 C4.343,5 3,6.343 3,8 L3,33 L41,33 Z" id="Path"></path>
            <path d="M43,33 L43,36 C43,37.657 41.657,39 40,39 L4,39 C2.343,39 1,37.657 1,36 L1,33 L43,33 L43,33 Z" id="Path"></path>
            <path d="M7,9 L37,9 L37,29 L7,29 L7,9 Z" id="Path"></path>
        </g>
    </g>
</svg>