<?xml version="1.0" encoding="UTF-8" standalone="no"?>
<svg width="64px" height="64px" viewBox="0 0 64 64" version="1.1" xmlns="http://www.w3.org/2000/svg" xmlns:xlink="http://www.w3.org/1999/xlink">
    <defs></defs>
    <g id="Page-1" stroke="none" stroke-width="1" fill="none" fill-rule="evenodd">
        <rect id="Rectangle-15" fill="#F7F7F7" x="-594" y="-154" width="1529" height="833"></rect>
        <g id="icons/lifebelt" stroke="#666666" stroke-width="2" stroke-linecap="round" stroke-linejoin="round">
            <path d="M57,33 C57,18.641 45.359,7 31,7 C16.641,7 5,18.641 5,33 C5,47.359 16.641,59 31,59 C45.359,59 57,47.359 57,33 L57,33 Z" id="Path"></path>
            <path d="M45,33 C45,40.732 38.732,47 31,47 C23.268,47 17,40.732 17,33 C17,25.268 23.268,19 31,19 C38.732,19 45,25.268 45,33 L45,33 Z" id="Path"></path>
            <path d="M18.639,26.422 L7.997,20.869 C7.362,19.723 7,18.403 7,17 C7,12.582 10.582,9 15,9 C16.403,9 17.723,9.362 18.869,9.997 L24.639,20.525 L18.639,26.422 Z" id="Path"></path>
            <path d="M43.361,26.422 L54.003,20.869 C54.638,19.723 55,18.403 55,17 C55,12.582 51.418,9 47,9 C45.597,9 44.277,9.362 43.131,9.997 L37.361,20.525 L43.361,26.422 Z" id="Path"></path>
            <path d="M18.639,39.578 L7.997,45.131 C7.362,46.277 7,47.597 7,49 C7,53.418 10.582,57 15,57 C16.403,57 17.723,56.638 18.869,56.003 L24.639,45.475 L18.639,39.578 Z" id="Path"></path>
            <path d="M43.361,39.578 L54.003,45.131 C54.638,46.277 55,47.597 55,49 C55,53.418 51.418,57 47,57 C45.597,57 44.277,56.638 43.131,56.003 L37.361,45.475 L43.361,39.578 Z" id="Path"></path>
        </g>
    </g>
</svg>