<?xml version="1.0" encoding="UTF-8" standalone="no"?>
<svg width="20px" height="32px" viewBox="0 0 20 32" version="1.1" xmlns="http://www.w3.org/2000/svg" xmlns:xlink="http://www.w3.org/1999/xlink">
    <defs>
        <rect id="path-1" x="0" y="0" width="666" height="390" rx="4"></rect>
    </defs>
    <g id="buyersteps" stroke="none" stroke-width="1" fill="none" fill-rule="evenodd">
        <g id="step1-copy" transform="translate(-73.000000, -212.000000)">
            <g id="modal" transform="translate(53.000000, 123.000000)">
                <mask id="mask-2" sketch:name="Mask" fill="white">
                    <use xlink:href="#path-1"></use>
                </mask>
                <use id="Mask" fill="#FFFFFF" xlink:href="#path-1"></use>
            </g>
            <g id="padlock_closed_2" transform="translate(73.000000, 212.000000)" stroke="#4BA0C9" stroke-width="2" stroke-linecap="round" stroke-linejoin="round">
                <path d="M10,18 L10,15 L10,18 Z" id="Path"></path>
                <path d="M11,15 C11,15.552 10.552,16 10,16 C9.448,16 9,15.552 9,15 C9,14.4475 9.448,14 10,14 C10.552,14 11,14.4475 11,15 L11,15 Z" id="Path"></path>
                <path d="M18,21.9166667 L18,10 L2,10 L2,21.9166667 C2,22.328 2.6715,23 3.06666667,23 L16.9333333,23 C17.3285,23 18,22.328 18,21.9166667 L18,21.9166667 Z" id="Path"></path>
                <path d="M5,10 L5,6.14285714 C5,3.49600446 7.239,1 10.5555556,1 C12.761,1 15,3.49600446 15,6.14285714 L15,10 L5,10 Z" id="Path"></path>
            </g>
        </g>
    </g>
</svg>