<?xml version="1.0" encoding="UTF-8" standalone="no"?>
<svg width="22px" height="35px" viewBox="0 0 22 35" version="1.1" xmlns="http://www.w3.org/2000/svg" xmlns:xlink="http://www.w3.org/1999/xlink">
    <defs></defs>
    <g id="Page-1" stroke="none" stroke-width="1" fill="none" fill-rule="evenodd">
        <rect id="Rectangle-14" fill="#4BA0C9" x="-597" y="-467" width="1529" height="999"></rect>
        <g id="padlock" stroke="#FFFFFF" stroke-width="2" stroke-linecap="round" opacity="0.57" stroke-linejoin="round">
            <path d="M9,19 L9,17 L9,19 Z" id="Path"></path>
            <path d="M10,15 C10,15.552 9.552,16 9,16 C8.448,16 8,15.552 8,15 C8,14.4475 8.448,14 9,14 C9.552,14 10,14.4475 10,15 L10,15 Z" id="Path"></path>
            <path d="M17,22 L17,10 L1,10 L1,22 C1,22.328 1.6715,23 3,23 L16,23 C16.3285,23 17,22.328 17,22 L17,22 Z" id="Path"></path>
            <path d="M4,9 L4,6 C4,3.21867063 6.239,1 9,1 C11.761,1 14,3.21867063 14,6 L14,9" id="Path"></path>
        </g>
    </g>
</svg>