<?xml version="1.0" encoding="UTF-8" standalone="no"?>
<svg width="24px" height="35px" viewBox="0 0 24 35" version="1.1" xmlns="http://www.w3.org/2000/svg" xmlns:xlink="http://www.w3.org/1999/xlink">
    <defs></defs>
    <g id="Page-1" stroke="none" stroke-width="1" fill="none" fill-rule="evenodd">
        <rect id="Rectangle-16" fill="#404A53" x="-455" y="-275" width="1529" height="723"></rect>
        <g id="prison_door" stroke="#FFFFFF" stroke-width="2" stroke-linecap="round" stroke-linejoin="round">
            <path d="M5,18 L4,18 L4,20 L5,20 L5,18 Z" id="Path"></path>
            <path d="M5,4 L4,4 L4,6 L5,6 L5,4 Z" id="Path"></path>
            <path d="M16.9090909,14.7272727 L16.9090909,16.9090909 L16.9090909,14.7272727 Z" id="Path"></path>
            <path d="M11.4545455,4.90909091 L11.4545455,10.3636364 L11.4545455,4.90909091 Z" id="Path"></path>
            <path d="M13.6363636,4.90909091 L13.6363636,10.3636364 L13.6363636,4.90909091 Z" id="Path"></path>
            <path d="M9,5 L16,5 L16,10 L9,10 L9,5 Z" id="Path"></path>
            <path d="M5,1 L20,1 L20,24 L5,24 L5,1 Z" id="Path"></path>
        </g>
    </g>
</svg>