<?xml version="1.0" encoding="UTF-8" standalone="no"?>
<svg width="35px" height="31px" viewBox="0 0 35 31" version="1.1" xmlns="http://www.w3.org/2000/svg" xmlns:xlink="http://www.w3.org/1999/xlink">
    <defs></defs>
    <g id="Page-1" stroke="none" stroke-width="1" fill="none" fill-rule="evenodd">
        <g id="Desktop-Copy-3" transform="translate(-452.000000, -2345.000000)" fill="#FFFFFF">
            <g id="icons/refresh" transform="translate(452.000000, 2345.000000)">
                <path d="M33.7272727,15.3125 C33.2003636,15.3125 32.7727273,15.7325 32.7727273,16.25 C32.7727273,23.315 26.9207273,29.0625 19.7272727,29.0625 C13.4100909,29.0625 8.13018182,24.62875 6.937,18.76375 L9.50727273,21.2875 C9.69309091,21.470625 9.93745455,21.5625 10.1818182,21.5625 C10.4261818,21.5625 10.6705455,21.470625 10.857,21.2875 C11.2299091,20.92125 11.2299091,20.328125 10.857,19.961875 L6.40245455,15.586875 C6.314,15.5 6.20772727,15.43125 6.09,15.38375 C6.08490909,15.38125 6.08045455,15.380625 6.07536364,15.37875 C5.96718182,15.3375 5.85009091,15.3125 5.72727273,15.3125 C5.60445455,15.3125 5.48736364,15.3375 5.37918182,15.37875 C5.37409091,15.380625 5.36963636,15.38125 5.36454545,15.38375 C5.24681818,15.43125 5.14054545,15.5 5.05209091,15.586875 L0.597545455,19.961875 C0.225272727,20.328125 0.225272727,20.92125 0.597545455,21.2875 C0.784,21.470625 1.02836364,21.5625 1.27272727,21.5625 C1.51709091,21.5625 1.76145455,21.470625 1.94790909,21.2875 L4.92927273,18.359375 C5.97418182,25.461875 12.2105455,30.9375 19.7272727,30.9375 C27.9732727,30.9375 34.6818182,24.34875 34.6818182,16.25 C34.6818182,15.7325 34.2541818,15.3125 33.7272727,15.3125" id="Fill-133"></path>
                <path d="M31.3008182,9.08 C31.4821818,9.42125 31.6495455,9.776875 31.7997273,10.135 C31.9511818,10.496875 32.3075455,10.71625 32.683,10.71625 C32.8039091,10.71625 32.9267273,10.693125 33.0457273,10.645625 C33.5325455,10.449375 33.7660909,9.90125 33.5656364,9.421875 C33.3938182,9.01125 33.201,8.60375 32.9922727,8.2125 C32.7479091,7.7525 32.1713636,7.575 31.7042727,7.815625 C31.2371818,8.055 31.0564545,8.62125 31.3008182,9.08" id="Fill-134"></path>
                <path d="M33.2334545,11.24625 C32.7173636,11.3525 32.3870909,11.849375 32.4946364,12.355625 C32.5748182,12.733125 32.6390909,13.12 32.6849091,13.505625 C32.7421818,13.983125 33.1551818,14.334375 33.6324545,14.334375 C33.6693636,14.334375 33.7069091,14.3325 33.7444545,14.328125 C34.2681818,14.2675 34.6423636,13.801875 34.5819091,13.2875 C34.5290909,12.84625 34.4559091,12.403125 34.363,11.97125 C34.2548182,11.464375 33.7457273,11.138125 33.2334545,11.24625" id="Fill-135"></path>
                <path d="M29.2472727,6.239375 C29.5158182,6.52125 29.7748182,6.818125 30.0179091,7.12375 C30.2062727,7.360625 30.4869091,7.485 30.7707273,7.485 C30.9769091,7.485 31.1837273,7.42 31.3574545,7.28625 C31.7736364,6.9675 31.8474545,6.378125 31.5229091,5.970625 C31.2448182,5.62 30.9476364,5.27875 30.6396364,4.956875 C30.2781818,4.57875 29.6749091,4.56125 29.2899091,4.914375 C28.9061818,5.26875 28.8864545,5.861875 29.2472727,6.239375" id="Fill-136"></path>
                <path d="M26.4930909,4.04375 C26.8303636,4.244375 27.1612727,4.463125 27.4769091,4.6925 C27.6474545,4.816875 27.8466364,4.876875 28.0439091,4.876875 C28.336,4.876875 28.6242727,4.745625 28.8113636,4.496875 C29.1257273,4.08125 29.0366364,3.494375 28.6128182,3.18625 C28.2513636,2.9225 27.8714545,2.671875 27.4845455,2.440625 C27.0346364,2.173125 26.4479091,2.3125 26.173,2.755 C25.8993636,3.1975 26.0425455,3.774375 26.4930909,4.04375" id="Fill-137"></path>
                <path d="M23.2419091,2.658125 C23.6199091,2.76125 23.9985455,2.88375 24.3650909,3.02125 C24.4770909,3.063125 24.5929091,3.083125 24.7055455,3.083125 C25.0899091,3.083125 25.452,2.853125 25.5977273,2.48 C25.7860909,1.995625 25.5385455,1.45375 25.046,1.269375 C24.6240909,1.11125 24.1894545,0.970625 23.7535455,0.85125 C23.247,0.71375 22.7188182,1.00375 22.5781818,1.503125 C22.4369091,2.001875 22.7340909,2.51875 23.2419091,2.658125" id="Fill-138"></path>
                <path d="M19.7272727,2.1875 C20.1230909,2.1875 20.5214545,2.205 20.9109091,2.24 C20.9408182,2.2425 20.9694545,2.24375 20.9987273,2.24375 C21.4868182,2.24375 21.903,1.8775 21.9481818,1.39125 C21.9952727,0.875 21.6083636,0.419375 21.084,0.3725 C20.6366364,0.3325 20.1803636,0.3125 19.7272727,0.3125 C19.2003636,0.3125 18.7727273,0.7325 18.7727273,1.25 C18.7727273,1.7675 19.2003636,2.1875 19.7272727,2.1875" id="Fill-139"></path>
            </g>
        </g>
    </g>
</svg>