<?xml version="1.0" encoding="UTF-8" standalone="no"?>
<svg width="96px" height="96px" viewBox="0 0 96 96" version="1.1" xmlns="http://www.w3.org/2000/svg" xmlns:xlink="http://www.w3.org/1999/xlink">
    <defs></defs>
    <g id="Page-1" stroke="none" stroke-width="1" fill="none" fill-rule="evenodd">
        <g id="step1" transform="translate(-464.000000, -324.000000)">
            <g id="modal" transform="translate(241.000000, 292.000000)">
                <g id="icons/refund" transform="translate(223.000000, 32.000000)">
                    <circle id="Oval-3" fill="#4BA0C9" cx="48" cy="48" r="48"></circle>
                    <g id="shop_cart_remove" transform="translate(16.000000, 18.000000)" fill="#F2F6F7">
                        <path d="M9,60 C7.346,60 6,58.654 6,57 C6,55.346 7.346,54 9,54 C10.654,54 12,55.346 12,57 C12,58.654 10.654,60 9,60 L9,60 Z M9,56 C8.449,56 8,56.448 8,57 C8,57.552 8.449,58 9,58 C9.551,58 10,57.552 10,57 C10,56.448 9.551,56 9,56 L9,56 Z" id="Fill-89"></path>
                        <path d="M53,60 C51.346,60 50,58.654 50,57 C50,55.346 51.346,54 53,54 C54.654,54 56,55.346 56,57 C56,58.654 54.654,60 53,60 L53,60 Z M53,56 C52.449,56 52,56.448 52,57 C52,57.552 52.449,58 53,58 C53.551,58 54,57.552 54,57 C54,56.448 53.551,56 53,56 L53,56 Z" id="Fill-90"></path>
                        <path d="M15.1,42.995 L55.1,38.995 C55.611,38.944 56,38.514 56,38 L56,17 C56,16.447 55.553,16 55,16 L36,16 L36,31 C36,32.657 34.656,34 33,34 C31.344,34 30,32.657 30,31 L30,16 L7.978,16 L6.955,12.703 C6.825,12.285 6.437,12 6,12 L1,12 C0.447,12 0,12.447 0,13 C0,13.553 0.447,14 1,14 L5.264,14 L13.717,41.238 C9.178,42.462 6,47.645 6,51 C6,51.553 6.447,52 7,52 L55,52 C55.553,52 56,51.553 56,51 C56,50.447 55.553,50 55,50 L8.121,50 C8.714,47.329 11.426,43.39 15.1,42.995" id="Fill-91"></path>
                        <path d="M41.707,8.293 L33.707,0.294 C33.615,0.201 33.505,0.128 33.382,0.077 C33.138,-0.023 32.862,-0.023 32.618,0.077 C32.495,0.128 32.385,0.201 32.293,0.294 L24.293,8.293 C23.902,8.684 23.902,9.316 24.293,9.707 C24.684,10.098 25.316,10.098 25.707,9.707 L32,3.414 L32,31 C32,31.553 32.447,32 33,32 C33.553,32 34,31.553 34,31 L34,3.414 L40.293,9.707 C40.488,9.902 40.744,10 41,10 C41.256,10 41.512,9.902 41.707,9.707 C42.098,9.316 42.098,8.684 41.707,8.293" id="Fill-92"></path>
                    </g>
                </g>
            </g>
        </g>
    </g>
</svg>