<?xml version="1.0" encoding="UTF-8" standalone="no"?>
<svg width="31px" height="30px" viewBox="0 0 31 30" version="1.1" xmlns="http://www.w3.org/2000/svg" xmlns:xlink="http://www.w3.org/1999/xlink">
    <defs></defs>
    <g id="Page-1" stroke="none" stroke-width="1" fill="none" fill-rule="evenodd">
        <g id="step3" transform="translate(-730.000000, -832.000000)" fill="#FFFFFF">
            <path d="M737.355603,838.513002 C738.415276,838.513002 739.27431,837.65357 739.27431,836.593408 C739.27431,835.533245 738.415276,834.673813 737.355603,834.673813 C736.29593,834.673813 735.436895,835.533245 735.436895,836.593408 C735.436895,837.65357 736.29593,838.513002 737.355603,838.513002 Z M744.827418,835.40151 C745.639175,836.082654 746.849665,835.976468 747.531125,835.164336 C748.212584,834.352204 748.106958,833.141665 747.295201,832.46052 C746.483445,831.779375 745.272954,831.885562 744.591494,832.697693 C743.910035,833.509825 744.015661,834.720365 744.827418,835.40151 Z M752.541348,837.853126 C752.725358,838.8967 753.720903,839.593445 754.764959,839.40935 C755.809016,839.225254 756.506221,838.230032 756.322211,837.186458 C756.138201,836.142884 755.142656,835.446138 754.098599,835.630234 C753.054543,835.814329 752.357337,836.809552 752.541348,837.853126 Z M756.887958,844.720712 C756.358122,845.638416 756.672894,846.812078 757.591022,847.342159 C758.50915,847.872241 759.682957,847.558011 760.212794,846.640307 C760.74263,845.722603 760.427858,844.548942 759.50973,844.01886 C758.591602,843.488779 757.417795,843.803009 756.887958,844.720712 Z M755.833422,852.790849 C754.837656,853.153279 754.32437,854.254687 754.686967,855.250915 C755.049564,856.247142 756.150736,856.760936 757.146502,856.398507 C758.142269,856.036078 758.655555,854.934669 758.292958,853.938441 C757.930361,852.942214 756.829189,852.42842 755.833422,852.790849 Z M749.871169,858.28743 C748.875402,857.925 747.774231,858.438795 747.411634,859.435022 C747.049037,860.431249 747.562322,861.532658 748.558089,861.895087 C749.553856,862.257517 750.655027,861.743722 751.017624,860.747495 C751.380222,859.751268 750.866936,858.649859 749.871169,858.28743 Z M741.791003,858.638542 C741.261167,857.720839 740.08736,857.406609 739.169232,857.93669 C738.251104,858.466772 737.936331,859.640433 738.466168,860.558137 C738.996004,861.475841 740.169811,861.790071 741.087939,861.259989 C742.006067,860.729908 742.32084,859.556246 741.791003,858.638542 Z M735.373724,853.679898 C735.557734,852.636324 734.860529,851.641101 733.816472,851.457006 C732.772416,851.272911 731.776871,851.969656 731.592861,853.01323 C731.40885,854.056804 732.106056,855.052027 733.150112,855.236122 C734.194169,855.420217 735.189714,854.723472 735.373724,853.679898 Z M733.622047,845.731702 C734.433804,845.050557 734.539431,843.840017 733.857971,843.027885 C733.176512,842.215754 731.966021,842.109567 731.154264,842.790712 C730.342508,843.471857 730.236881,844.682396 730.918341,845.494528 C731.5998,846.30666 732.810291,846.412846 733.622047,845.731702 Z" id="icons/spinner"></path>
        </g>
    </g>
</svg>