<?xml version="1.0" encoding="UTF-8" standalone="no"?>
<svg width="24px" height="35px" viewBox="0 0 24 35" version="1.1" xmlns="http://www.w3.org/2000/svg" xmlns:xlink="http://www.w3.org/1999/xlink">
    <defs></defs>
    <g id="Page-1" stroke="none" stroke-width="1" fill="none" fill-rule="evenodd">
        <rect id="Rectangle-14" fill="#4BA0C9" x="-529" y="-484" width="1529" height="999"></rect>
        <g id="user" stroke="#FFFFFF" stroke-width="2" stroke-linecap="round" opacity="0.57" stroke-linejoin="round">
            <path d="M15.8181818,8.40054545 C15.8181818,11.1109091 14.8625455,14.7272727 11.4545455,14.7272727 C8.04654545,14.7272727 7.09090909,11.1109091 7.09090909,8.40054545 C7.09090909,5.45454545 7.55945455,2.72727273 11.4545455,2.72727273 C15.3496364,2.72727273 15.8181818,5.45454545 15.8181818,8.40054545 L15.8181818,8.40054545 Z" id="Path"></path>
            <path d="M15.8181818,14.7272727 C21.0703636,15.5350909 21.9065455,17.0749091 22.3636364,20.7272727 C22.3636364,21.9594545 17.4796364,22.3636364 11.4545455,22.3636364 C5.42945455,22.3636364 0.545454545,21.9594545 0.545454545,20.7272727 C1.00254545,17.0727273 1.83872727,15.5350909 7.09090909,14.7272727" id="Stroke-9"></path>
        </g>
    </g>
</svg>