<?xml version="1.0" encoding="UTF-8" standalone="no"?>
<svg width="96px" height="96px" viewBox="0 0 96 96" version="1.1" xmlns="http://www.w3.org/2000/svg" xmlns:xlink="http://www.w3.org/1999/xlink">
    <defs></defs>
    <g id="Page-1" stroke="none" stroke-width="1" fill="none" fill-rule="evenodd">
        <g id="step1" transform="translate(-464.000000, -324.000000)">
            <g id="modal" transform="translate(241.000000, 292.000000)">
                <g id="icons/wallet" transform="translate(223.000000, 32.000000)">
                    <circle id="Oval-3" fill="#4BA0C9" cx="48" cy="48" r="48"></circle>
                    <g id="wallet" transform="translate(20.000000, 26.000000)" fill="#FFFFFF">
                        <path d="M52,10.102 L52,6 C52,2.691 49.309,0 46,0 L6,0 C2.691,0 0,2.691 0,6 L0,40 C0,43.309 2.691,46 6,46 L46,46 C49.309,46 52,43.309 52,40 L52,33.92 C51.673,33.967 51.341,34 51,34 L41,34 C36.037,34 32,29.963 32,25 C32,20.037 36.037,16 41,16 L52,16 L52,12.185 C53.161,12.599 54,13.698 54,15 C54,16.654 52.654,18 51,18 L41,18 C37.141,18 34,21.141 34,25 C34,28.859 37.141,32 41,32 L51,32 C53.757,32 56,29.757 56,27 L56,15 C56,12.586 54.279,10.565 52,10.102 L52,10.102 Z M46,4 L2.557,4 C3.25,2.81 4.525,2 6,2 L46,2 C48.033,2 49.697,3.528 49.949,5.494 C48.893,4.566 47.513,4 46,4 L46,4 Z M41,28 C39.346,28 38,26.654 38,25 C38,23.346 39.346,22 41,22 C42.654,22 44,23.346 44,25 C44,26.654 42.654,28 41,28 L41,28 Z" id="Fill-115"></path>
                    </g>
                </g>
            </g>
        </g>
    </g>
</svg>