<?xml version="1.0" encoding="UTF-8" standalone="no"?>
<svg width="61px" height="53px" viewBox="0 0 61 53" version="1.1" xmlns="http://www.w3.org/2000/svg" xmlns:xlink="http://www.w3.org/1999/xlink">
    <defs></defs>
    <g id="buyersteps" stroke="none" stroke-width="1" fill="none" fill-rule="evenodd" stroke-linecap="round" stroke-linejoin="round">
        <g id="step2" transform="translate(-355.000000, -533.000000)" stroke="#FFFFFF">
            <g id="bookmark-warning" transform="translate(47.000000, 536.000000)">
                <g id="icons/warning" transform="translate(311.000000, 0.000000)">
                    <path d="M54.9192852,41.0873397 C54.9192852,39.872208 54.291799,38.460711 54.291799,38.460711 L32.2493858,2.69889874 C31.1846202,1.22129858 29.4394242,0.258914263 27.4667645,0.258914263 C25.4941048,0.258914263 23.7489088,1.22129858 22.6841432,2.69695453 L0.641729972,38.460711 C0.641729972,38.460711 0.0142437845,39.872208 0.0142437845,41.0873397 C0.0142437845,44.3069527 2.64968577,46.919972 5.8969268,46.919972 L49.0366022,46.919972 C52.2838432,46.919972 54.9192852,44.3069527 54.9192852,41.0873397 Z" id="Path" stroke-width="3" fill="#E55E5E"></path>
                    <path d="M27.4667645,9.94230769 L27.4667645,27.7671008 L27.4667645,9.94230769 Z" id="Path" stroke-width="2.4"></path>
                    <path d="M27.4667645,34.7980769 L27.4667645,34.7980769 L27.4667645,34.7980769 Z" id="Path-2" stroke-width="3.3"></path>
                </g>
            </g>
        </g>
    </g>
</svg>