<?xml version="1.0" encoding="UTF-8" standalone="no"?>
<svg width="96px" height="96px" viewBox="0 0 96 96" version="1.1" xmlns="http://www.w3.org/2000/svg" xmlns:xlink="http://www.w3.org/1999/xlink">
    <defs></defs>
    <g id="Page-1" stroke="none" stroke-width="1" fill="none" fill-rule="evenodd">
        <g id="step2" transform="translate(-464.000000, -324.000000)">
            <g id="modal" transform="translate(241.000000, 292.000000)">
                <g id="icons/www" transform="translate(223.000000, 32.000000)">
                    <circle id="Oval-3" fill="#4BA0C9" cx="48" cy="48" r="48"></circle>
                    <g id="ui_www" transform="translate(20.000000, 25.000000)" fill="#FCFDFD">
                        <path d="M52,42 C52,43.103 51.103,44 50,44 L4,44 C2.897,44 2,43.103 2,42 L2,12 L52,12 L52,42 L52,42 Z M34,4 C35.103,4 36,4.897 36,6 C36,7.103 35.103,8 34,8 C32.897,8 32,7.103 32,6 C32,4.897 32.897,4 34,4 L34,4 Z M40,4 C41.103,4 42,4.897 42,6 C42,7.103 41.103,8 40,8 C38.897,8 38,7.103 38,6 C38,4.897 38.897,4 40,4 L40,4 Z M46,4 C47.103,4 48,4.897 48,6 C48,7.103 47.103,8 46,8 C44.897,8 44,7.103 44,6 C44,4.897 44.897,4 46,4 L46,4 Z M50,0 L4,0 C1.794,0 0,1.794 0,4 L0,42 C0,44.206 1.794,46 4,46 L50,46 C52.206,46 54,44.206 54,42 L54,4 C54,1.794 52.206,0 50,0 L50,0 Z" id="Fill-47"></path>
                        <path d="M19.316,24.136 C18.788,23.959 18.227,24.244 18.052,24.768 L17.007,27.902 L15.95,24.688 C15.815,24.275 15.441,24.02 14.994,24 C14.56,24.003 14.177,24.285 14.046,24.699 L13.037,27.902 L11.944,24.756 C11.763,24.234 11.193,23.956 10.672,24.14 C10.15,24.32 9.874,24.891 10.056,25.412 L12.14,31.412 C12.279,31.814 12.658,32.084 13.084,32.084 L13.099,32.084 C13.529,32.077 13.908,31.796 14.038,31.385 L15.021,28.265 L16.05,31.396 C16.185,31.806 16.566,32.083 16.998,32.084 L17,32.084 C17.431,32.084 17.813,31.809 17.948,31.4 L19.948,25.4 C20.123,24.876 19.84,24.31 19.316,24.136" id="Fill-48"></path>
                        <path d="M31.316,24.136 C30.788,23.959 30.227,24.244 30.052,24.768 L29.007,27.902 L27.95,24.688 C27.815,24.277 27.432,24 27,24 L26.994,24 C26.56,24.003 26.177,24.285 26.046,24.699 L25.037,27.902 L23.944,24.756 C23.763,24.234 23.193,23.956 22.672,24.14 C22.15,24.32 21.874,24.891 22.056,25.412 L24.14,31.412 C24.279,31.814 24.658,32.084 25.084,32.084 L25.099,32.084 C25.529,32.077 25.908,31.796 26.038,31.385 L27.021,28.265 L28.05,31.396 C28.185,31.806 28.566,32.083 28.998,32.084 L29,32.084 C29.431,32.084 29.813,31.809 29.948,31.4 L31.948,25.4 C32.123,24.876 31.84,24.31 31.316,24.136" id="Fill-49"></path>
                        <path d="M43.316,24.136 C42.788,23.959 42.227,24.244 42.052,24.768 L41.007,27.902 L39.95,24.688 C39.815,24.277 39.432,24 39,24 L38.994,24 C38.56,24.003 38.177,24.285 38.046,24.699 L37.037,27.902 L35.944,24.756 C35.763,24.234 35.193,23.956 34.672,24.14 C34.15,24.32 33.874,24.891 34.056,25.412 L36.14,31.412 C36.279,31.814 36.658,32.084 37.084,32.084 L37.099,32.084 C37.529,32.077 37.908,31.796 38.038,31.385 L39.021,28.265 L40.05,31.396 C40.185,31.806 40.566,32.083 40.998,32.084 L41,32.084 C41.431,32.084 41.813,31.809 41.948,31.4 L43.948,25.4 C44.123,24.876 43.84,24.31 43.316,24.136" id="Fill-50"></path>
                    </g>
                </g>
            </g>
        </g>
    </g>
</svg>