<?xml version="1.0" encoding="UTF-8" standalone="no"?>
<svg width="61px" height="63px" viewBox="0 0 61 63" version="1.1" xmlns="http://www.w3.org/2000/svg" xmlns:xlink="http://www.w3.org/1999/xlink">
    <defs></defs>
    <g id="Page-1" stroke="none" stroke-width="1" fill="none" fill-rule="evenodd">
        <rect id="Rectangle-14" fill="#4BA0C9" x="-597" y="-243" width="1529" height="999"></rect>
        <text id="Type-something-Copy" font-family="Open Sans" font-size="36" font-weight="normal" fill="#FFFFFF">
            <tspan x="-1" y="97">Escrow funds are stored on the blockchain</tspan>
        </text>
        <g id="coin-stack">
            <path d="M30.8557692,46.6268076 C16.0730454,46.6268076 4.08852785,43.5577275 4.08852785,40.4098999 L4.08852785,47.6588142 C4.09676393,50.8045695 16.0771635,53.8798665 30.8557692,53.8798665 C45.634375,53.8798665 57.6147745,50.8045695 57.6230106,47.6588142 L57.6230106,40.4098999 C57.6230106,43.5577275 45.638493,46.6268076 30.8557692,46.6268076 L30.8557692,46.6268076 Z" id="Fill-37" fill="#D0E8F9"></path>
            <path d="M30.8557692,46.6268076 C16.0730454,46.6268076 4.08852785,43.5577275 4.08852785,40.4098999 L4.08852785,47.6588142 C4.09676393,50.8045695 16.0771635,53.8798665 30.8557692,53.8798665 C45.634375,53.8798665 57.6147745,50.8045695 57.6230106,47.6588142 L57.6230106,40.4098999 C57.6230106,43.5577275 45.638493,46.6268076 30.8557692,46.6268076 L30.8557692,46.6268076 Z" id="Stroke-38" stroke="#0096E6" stroke-width="2" stroke-linecap="round"></path>
            <path d="M9.23607427,43.9504288 L9.23607427,51.198307" id="Fill-39" fill="#D0E8F9"></path>
            <path d="M9.23607427,43.9504288 L9.23607427,51.198307" id="Stroke-40" stroke="#0096E6" stroke-width="2" stroke-linecap="round"></path>
            <path d="M52.4754642,51.198307 L52.4754642,43.9504288" id="Fill-41" fill="#D0E8F9"></path>
            <path d="M52.4754642,51.198307 L52.4754642,43.9504288" id="Stroke-42" stroke="#0096E6" stroke-width="2" stroke-linecap="round"></path>
            <path d="M14.3836207,45.2207503 L14.3836207,52.4707008" id="Fill-43" fill="#D0E8F9"></path>
            <path d="M14.3836207,45.2207503 L14.3836207,52.4707008" id="Stroke-44" stroke="#0096E6" stroke-width="2" stroke-linecap="round"></path>
            <path d="M47.3279178,52.4707008 L47.3279178,45.2207503" id="Fill-45" fill="#D0E8F9"></path>
            <path d="M47.3279178,52.4707008 L47.3279178,45.2207503" id="Stroke-46" stroke="#0096E6" stroke-width="2" stroke-linecap="round"></path>
            <path d="M19.5311671,45.9968276 L19.5311671,53.2478142" id="Fill-47" fill="#D0E8F9"></path>
            <path d="M19.5311671,45.9968276 L19.5311671,53.2478142" id="Stroke-48" stroke="#0096E6" stroke-width="2" stroke-linecap="round"></path>
            <path d="M42.1803714,53.2478142 L42.1803714,45.9968276" id="Fill-49" fill="#D0E8F9"></path>
            <path d="M42.1803714,53.2478142 L42.1803714,45.9968276" id="Stroke-50" stroke="#0096E6" stroke-width="2" stroke-linecap="round"></path>
            <path d="M24.6787135,46.4434088 L24.6787135,53.6954316" id="Fill-51" fill="#D0E8F9"></path>
            <path d="M24.6787135,46.4434088 L24.6787135,53.6954316" id="Stroke-52" stroke="#0096E6" stroke-width="2" stroke-linecap="round"></path>
            <path d="M37.0328249,53.6954316 L37.0328249,46.4434088" id="Fill-53" fill="#D0E8F9"></path>
            <path d="M37.0328249,53.6954316 L37.0328249,46.4434088" id="Stroke-54" stroke="#0096E6" stroke-width="2" stroke-linecap="round"></path>
            <path d="M30.8557692,46.6268076 L30.8557692,53.8798665" id="Fill-55" fill="#D0E8F9"></path>
            <path d="M30.8557692,46.6268076 L30.8557692,53.8798665" id="Stroke-56" stroke="#0096E6" stroke-width="2" stroke-linecap="round"></path>
            <path d="M27.7672414,35.2291435 C12.9845176,35.2291435 1,32.1600634 1,29.0122358 L1,36.2611502 C1.00823607,39.4069055 12.9886356,42.4822024 27.7672414,42.4822024 C42.5458471,42.4822024 54.5262467,39.4069055 54.5344828,36.2611502 L54.5344828,29.0122358 C54.5344828,32.1600634 42.5499652,35.2291435 27.7672414,35.2291435 L27.7672414,35.2291435 Z" id="Fill-57" fill="#D0E8F9"></path>
            <path d="M27.7672414,35.2291435 C12.9845176,35.2291435 1,32.1600634 1,29.0122358 L1,36.2611502 C1.00823607,39.4069055 12.9886356,42.4822024 27.7672414,42.4822024 C42.5458471,42.4822024 54.5262467,39.4069055 54.5344828,36.2611502 L54.5344828,29.0122358 C54.5344828,32.1600634 42.5499652,35.2291435 27.7672414,35.2291435 L27.7672414,35.2291435 Z" id="Stroke-58" stroke="#0096E6" stroke-width="2" stroke-linecap="round"></path>
            <path d="M6.14754642,32.5527647 L6.14754642,39.8006429" id="Fill-59" fill="#D0E8F9"></path>
            <path d="M6.14754642,32.5527647 L6.14754642,39.8006429" id="Stroke-60" stroke="#0096E6" stroke-width="2" stroke-linecap="round"></path>
            <path d="M49.3869363,39.8006429 L49.3869363,32.5527647" id="Fill-61" fill="#D0E8F9"></path>
            <path d="M49.3869363,39.8006429 L49.3869363,32.5527647" id="Stroke-62" stroke="#0096E6" stroke-width="2" stroke-linecap="round"></path>
            <path d="M11.2950928,33.8230862 L11.2950928,41.0730367" id="Fill-63" fill="#D0E8F9"></path>
            <path d="M11.2950928,33.8230862 L11.2950928,41.0730367" id="Stroke-64" stroke="#0096E6" stroke-width="2" stroke-linecap="round"></path>
            <path d="M44.2393899,41.0730367 L44.2393899,33.8230862" id="Fill-65" fill="#D0E8F9"></path>
            <path d="M44.2393899,41.0730367 L44.2393899,33.8230862" id="Stroke-66" stroke="#0096E6" stroke-width="2" stroke-linecap="round"></path>
            <path d="M16.4426393,34.5991635 L16.4426393,41.8501502" id="Fill-67" fill="#D0E8F9"></path>
            <path d="M16.4426393,34.5991635 L16.4426393,41.8501502" id="Stroke-68" stroke="#0096E6" stroke-width="2" stroke-linecap="round"></path>
            <path d="M39.0918435,41.8501502 L39.0918435,34.5991635" id="Fill-69" fill="#D0E8F9"></path>
            <path d="M39.0918435,41.8501502 L39.0918435,34.5991635" id="Stroke-70" stroke="#0096E6" stroke-width="2" stroke-linecap="round"></path>
            <path d="M21.5901857,35.0457447 L21.5901857,42.2977675" id="Fill-71" fill="#D0E8F9"></path>
            <path d="M21.5901857,35.0457447 L21.5901857,42.2977675" id="Stroke-72" stroke="#0096E6" stroke-width="2" stroke-linecap="round"></path>
            <path d="M33.9442971,42.2977675 L33.9442971,35.0457447" id="Fill-73" fill="#D0E8F9"></path>
            <path d="M33.9442971,42.2977675 L33.9442971,35.0457447" id="Stroke-74" stroke="#0096E6" stroke-width="2" stroke-linecap="round"></path>
            <path d="M27.7672414,35.2291435 L27.7672414,42.4822024" id="Fill-75" fill="#D0E8F9"></path>
            <path d="M27.7672414,35.2291435 L27.7672414,42.4822024" id="Stroke-76" stroke="#0096E6" stroke-width="2" stroke-linecap="round"></path>
            <path d="M33.9442971,23.8314794 C19.1615733,23.8314794 7.1770557,20.7623993 7.1770557,17.6145717 L7.1770557,24.8634861 C7.18529178,28.0092414 19.1656913,31.0845384 33.9442971,31.0845384 C48.7229029,31.0845384 60.7033024,28.0092414 60.7115385,24.8634861 L60.7115385,17.6145717 C60.7115385,20.7623993 48.7270209,23.8314794 33.9442971,23.8314794 L33.9442971,23.8314794 Z" id="Fill-77" fill="#D0E8F9"></path>
            <path d="M33.9442971,23.8314794 C19.1615733,23.8314794 7.1770557,20.7623993 7.1770557,17.6145717 L7.1770557,24.8634861 C7.18529178,28.0092414 19.1656913,31.0845384 33.9442971,31.0845384 C48.7229029,31.0845384 60.7033024,28.0092414 60.7115385,24.8634861 L60.7115385,17.6145717 C60.7115385,20.7623993 48.7270209,23.8314794 33.9442971,23.8314794 L33.9442971,23.8314794 Z" id="Stroke-78" stroke="#0096E6" stroke-width="2" stroke-linecap="round"></path>
            <path d="M12.3246021,21.1551007 L12.3246021,28.4029789" id="Fill-79" fill="#D0E8F9"></path>
            <path d="M12.3246021,21.1551007 L12.3246021,28.4029789" id="Stroke-80" stroke="#0096E6" stroke-width="2" stroke-linecap="round"></path>
            <path d="M55.563992,28.4029789 L55.563992,21.1551007" id="Fill-81" fill="#D0E8F9"></path>
            <path d="M55.563992,28.4029789 L55.563992,21.1551007" id="Stroke-82" stroke="#0096E6" stroke-width="2" stroke-linecap="round"></path>
            <path d="M17.4721485,22.4254221 L17.4721485,29.6753726" id="Fill-83" fill="#D0E8F9"></path>
            <path d="M17.4721485,22.4254221 L17.4721485,29.6753726" id="Stroke-84" stroke="#0096E6" stroke-width="2" stroke-linecap="round"></path>
            <path d="M50.4164456,29.6753726 L50.4164456,22.4254221" id="Fill-85" fill="#D0E8F9"></path>
            <path d="M50.4164456,29.6753726 L50.4164456,22.4254221" id="Stroke-86" stroke="#0096E6" stroke-width="2" stroke-linecap="round"></path>
            <path d="M22.619695,23.2014994 L22.619695,30.4524861" id="Fill-87" fill="#D0E8F9"></path>
            <path d="M22.619695,23.2014994 L22.619695,30.4524861" id="Stroke-88" stroke="#0096E6" stroke-width="2" stroke-linecap="round"></path>
            <path d="M45.2688992,30.4524861 L45.2688992,23.2014994" id="Fill-89" fill="#D0E8F9"></path>
            <path d="M45.2688992,30.4524861 L45.2688992,23.2014994" id="Stroke-90" stroke="#0096E6" stroke-width="2" stroke-linecap="round"></path>
            <path d="M27.7672414,23.6480806 L27.7672414,30.9001034" id="Fill-91" fill="#D0E8F9"></path>
            <path d="M27.7672414,23.6480806 L27.7672414,30.9001034" id="Stroke-92" stroke="#0096E6" stroke-width="2" stroke-linecap="round"></path>
            <path d="M40.1213528,30.9001034 L40.1213528,23.6480806" id="Fill-93" fill="#D0E8F9"></path>
            <path d="M40.1213528,30.9001034 L40.1213528,23.6480806" id="Stroke-94" stroke="#0096E6" stroke-width="2" stroke-linecap="round"></path>
            <path d="M33.9442971,23.8314794 L33.9442971,31.0845384" id="Fill-95" fill="#D0E8F9"></path>
            <path d="M33.9442971,23.8314794 L33.9442971,31.0845384" id="Stroke-96" stroke="#0096E6" stroke-width="2" stroke-linecap="round"></path>
            <path d="M54.5344828,5.31545606 C54.5344828,8.4622475 42.5499652,11.3976641 27.7672414,11.3976641 C12.9845176,11.3976641 1,8.4622475 1,5.31545606 C1,2.16762848 12.9845176,0 27.7672414,0 C42.5499652,0 54.5344828,2.16762848 54.5344828,5.31545606 L54.5344828,5.31545606 Z" id="Fill-97" fill="#5AB6E2"></path>
            <path d="M54.5344828,5.31545606 C54.5344828,8.4622475 42.5499652,11.3976641 27.7672414,11.3976641 C12.9845176,11.3976641 1,8.4622475 1,5.31545606 C1,2.16762848 12.9845176,0 27.7672414,0 C42.5499652,0 54.5344828,2.16762848 54.5344828,5.31545606 L54.5344828,5.31545606 Z" id="Stroke-98" stroke="#3590BC" stroke-width="2" stroke-linecap="round"></path>
            <path d="M27.7672414,11.3976641 C12.9845176,11.3976641 1,8.32858398 1,5.1807564 L1,12.4296707 C1.00823607,15.575426 12.9886356,18.650723 27.7672414,18.650723 C42.5458471,18.650723 54.5262467,15.575426 54.5344828,12.4296707 L54.5344828,5.1807564 C54.5344828,8.32858398 42.5499652,11.3976641 27.7672414,11.3976641 L27.7672414,11.3976641 Z" id="Fill-99" fill="#D0E8F9"></path>
            <path d="M27.7672414,11.3976641 C12.9845176,11.3976641 1,8.32858398 1,5.1807564 L1,12.4296707 C1.00823607,15.575426 12.9886356,18.650723 27.7672414,18.650723 C42.5458471,18.650723 54.5262467,15.575426 54.5344828,12.4296707 L54.5344828,5.1807564 C54.5344828,8.32858398 42.5499652,11.3976641 27.7672414,11.3976641 L27.7672414,11.3976641 Z" id="Stroke-100" stroke="#0096E6" stroke-width="2" stroke-linecap="round"></path>
            <path d="M6.14754642,8.72128532 L6.14754642,15.9691635" id="Fill-101" fill="#D0E8F9"></path>
            <path d="M6.14754642,8.72128532 L6.14754642,15.9691635" id="Stroke-102" stroke="#4BA0C9" stroke-width="2" stroke-linecap="round"></path>
            <path d="M49.3869363,15.9691635 L49.3869363,8.72128532" id="Fill-103" fill="#D0E8F9"></path>
            <path d="M49.3869363,15.9691635 L49.3869363,8.72128532" id="Stroke-104" stroke="#4BA0C9" stroke-width="2" stroke-linecap="round"></path>
            <path d="M11.2950928,9.99160679 L11.2950928,17.2415573" id="Fill-105" fill="#D0E8F9"></path>
            <path d="M11.2950928,9.99160679 L11.2950928,17.2415573" id="Stroke-106" stroke="#4BA0C9" stroke-width="2" stroke-linecap="round"></path>
            <path d="M44.2393899,17.2415573 L44.2393899,9.99160679" id="Fill-107" fill="#D0E8F9"></path>
            <path d="M44.2393899,17.2415573 L44.2393899,9.99160679" id="Stroke-108" stroke="#4BA0C9" stroke-width="2" stroke-linecap="round"></path>
            <path d="M16.4426393,10.7676841 L16.4426393,18.0186707" id="Fill-109" fill="#D0E8F9"></path>
            <path d="M16.4426393,10.7676841 L16.4426393,18.0186707" id="Stroke-110" stroke="#4BA0C9" stroke-width="2" stroke-linecap="round"></path>
            <path d="M39.0918435,18.0186707 L39.0918435,10.7676841" id="Fill-111" fill="#D0E8F9"></path>
            <path d="M39.0918435,18.0186707 L39.0918435,10.7676841" id="Stroke-112" stroke="#4BA0C9" stroke-width="2" stroke-linecap="round"></path>
            <path d="M21.5901857,11.2142653 L21.5901857,18.4662881" id="Fill-113" fill="#D0E8F9"></path>
            <path d="M21.5901857,11.2142653 L21.5901857,18.4662881" id="Stroke-114" stroke="#4BA0C9" stroke-width="2" stroke-linecap="round"></path>
            <path d="M33.9442971,18.4662881 L33.9442971,11.2142653" id="Fill-115" fill="#D0E8F9"></path>
            <path d="M33.9442971,18.4662881 L33.9442971,11.2142653" id="Stroke-116" stroke="#4BA0C9" stroke-width="2" stroke-linecap="round"></path>
            <path d="M27.7672414,11.3976641 L27.7672414,18.650723" id="Fill-117" fill="#D0E8F9"></path>
            <path d="M27.7672414,11.3976641 L27.7672414,18.650723" id="Stroke-118" stroke="#4BA0C9" stroke-width="2" stroke-linecap="round"></path>
            <path d="M53.7232294,37.6868943 C50.7994231,40.2741641 40.2891628,42.4822024 27.7672414,42.4822024 C17.9766081,42.4822024 9.41829741,41.1320973 4.75153183,39.3063988 C4.32222646,39.6991001 4.08852785,40.1114883 4.08852785,40.5445996 C4.08852785,43.691391 16.0730454,46.6268076 30.8557692,46.6268076 C45.638493,46.6268076 57.6230106,43.691391 57.6230106,40.5445996 C57.6230106,39.458713 56.1971403,38.4899116 53.7232294,37.6868943 L53.7232294,37.6868943 Z" id="Fill-119" fill="#5AB6E2"></path>
            <path d="M53.7232294,37.6868943 C50.7994231,40.2741641 40.2891628,42.4822024 27.7672414,42.4822024 C17.9766081,42.4822024 9.41829741,41.1320973 4.75153183,39.3063988 C4.32222646,39.6991001 4.08852785,40.1114883 4.08852785,40.5445996 C4.08852785,43.691391 16.0730454,46.6268076 30.8557692,46.6268076 C45.638493,46.6268076 57.6230106,43.691391 57.6230106,40.5445996 C57.6230106,39.458713 56.1971403,38.4899116 53.7232294,37.6868943 L53.7232294,37.6868943 Z" id="Stroke-120" stroke="#3590BC" stroke-width="2" stroke-linecap="round"></path>
            <path d="M33.9442971,31.0845384 C20.3413909,31.0845384 9.11665119,28.4786179 7.4097248,25.6105512 C3.41625829,26.5213281 1,27.7346613 1,29.1469355 C1,32.2937269 12.9845176,35.2291435 27.7672414,35.2291435 C42.5499652,35.2291435 54.5344828,32.2937269 54.5344828,29.1469355 C54.5344828,29.0080912 54.5035975,28.8723554 54.4572696,28.7376557 C49.5475398,30.1281707 42.1824304,31.0845384 33.9442971,31.0845384 L33.9442971,31.0845384 Z" id="Fill-121" fill="#5AB6E2"></path>
            <path d="M33.9442971,31.0845384 C20.3413909,31.0845384 9.11665119,28.4786179 7.4097248,25.6105512 C3.41625829,26.5213281 1,27.7346613 1,29.1469355 C1,32.2937269 12.9845176,35.2291435 27.7672414,35.2291435 C42.5499652,35.2291435 54.5344828,32.2937269 54.5344828,29.1469355 C54.5344828,29.0080912 54.5035975,28.8723554 54.4572696,28.7376557 C49.5475398,30.1281707 42.1824304,31.0845384 33.9442971,31.0845384 L33.9442971,31.0845384 Z" id="Stroke-122" stroke="#3590BC" stroke-width="2" stroke-linecap="round"></path>
            <path d="M53.4977669,14.0377775 C50.2949635,16.5462998 39.9916346,18.650723 27.7672414,18.650723 C19.8729642,18.650723 12.7786157,17.7731029 7.87918103,16.4758415 C7.42516744,16.8789043 7.1770557,17.3037264 7.1770557,17.7492714 C7.1770557,20.8960628 19.1615733,23.8314794 33.9442971,23.8314794 C48.7270209,23.8314794 60.7115385,20.8960628 60.7115385,17.7492714 C60.7115385,16.2447798 57.9699552,14.9651329 53.4977669,14.0377775 L53.4977669,14.0377775 Z" id="Fill-123" fill="#5AB6E2"></path>
            <path d="M53.4977669,14.0377775 C50.2949635,16.5462998 39.9916346,18.650723 27.7672414,18.650723 C19.8729642,18.650723 12.7786157,17.7731029 7.87918103,16.4758415 C7.42516744,16.8789043 7.1770557,17.3037264 7.1770557,17.7492714 C7.1770557,20.8960628 19.1615733,23.8314794 33.9442971,23.8314794 C48.7270209,23.8314794 60.7115385,20.8960628 60.7115385,17.7492714 C60.7115385,16.2447798 57.9699552,14.9651329 53.4977669,14.0377775 L53.4977669,14.0377775 Z" id="Stroke-124" stroke="#3590BC" stroke-width="2" stroke-linecap="round"></path>
        </g>
    </g>
</svg>