<?xml version="1.0" encoding="UTF-8" standalone="no"?>
<svg width="302px" height="316px" viewBox="0 0 302 316" version="1.1" xmlns="http://www.w3.org/2000/svg" xmlns:xlink="http://www.w3.org/1999/xlink">
    <defs></defs>
    <g id="Page-1" stroke="none" stroke-width="1" fill="none" fill-rule="evenodd">
        <g id="Desktop" transform="translate(-400.000000, -397.000000)">
            <g id="heisenberg" transform="translate(402.000000, 399.000000)">
                <path d="M35.5,107.5 L35.5,268.214286 C35.5,280 45.1428571,289.642857 56.9285714,289.642857 L239.071429,289.642857 C250.857143,289.642857 260.5,280 260.5,268.214286 L260.5,107.5 L35.5,107.5 L35.5,107.5 Z" id="Fill-273" fill="#FFFFFF"></path>
                <path d="M35.5,107.5 L35.5,268.214286 C35.5,280 45.1428571,289.642857 56.9285714,289.642857 L239.071429,289.642857 C250.857143,289.642857 260.5,280 260.5,268.214286 L260.5,107.5 L35.5,107.5 L35.5,107.5 Z" id="Stroke-274" stroke="#475159" stroke-width="4" stroke-linecap="round" stroke-linejoin="round"></path>
                <path d="M67.6428571,203.258929 C141.973214,210.775 148,153.0625 148,136.444643 C113.146429,117.796429 70.3535714,117.796429 35.5,136.444643 C35.5,153.0625 36.7589286,200.130357 67.6428571,203.258929 Z" id="Fill-297" fill-opacity="0.8" fill="#566068"></path>
                <path d="M35.5,136.444643 C35.5,153.0625 36.7589286,200.130357 67.6428571,203.258929 C141.973214,210.775 148,153.0625 148,136.444643 C113.146429,117.796429 70.3535714,117.796429 35.5,136.444643 L35.5,136.444643 Z" id="Stroke-298" stroke="#475159" stroke-width="4"></path>
                <path d="M148,136.444643 C148,153.0625 154.026786,210.775 228.357143,203.258929 C259.241071,200.130357 260.5,153.0625 260.5,136.444643 C225.646429,117.796429 182.853571,117.796429 148,136.444643 L148,136.444643 Z" id="Fill-299" fill-opacity="0.8" fill="#566068"></path>
                <path d="M148,136.444643 C148,153.0625 154.026786,210.775 228.357143,203.258929 C259.241071,200.130357 260.5,153.0625 260.5,136.444643 C225.646429,117.796429 182.853571,117.796429 148,136.444643 L148,136.444643 Z" id="Stroke-300" stroke="#475159" stroke-width="4"></path>
                <path d="M279.25,107.5 L19.4285714,107.5 C9.11607143,107.5 0.678571429,99.0625 0.678571429,88.75 C0.678571429,78.4375 9.11607143,70 19.4285714,70 L279.25,70 C289.5625,70 298,78.4375 298,88.75 C298,99.0625 289.5625,107.5 279.25,107.5 L279.25,107.5 Z" id="Fill-301" fill="#FFFFFF"></path>
                <path d="M279.25,107.5 L19.4285714,107.5 C9.11607143,107.5 0.678571429,99.0625 0.678571429,88.75 C0.678571429,78.4375 9.11607143,70 19.4285714,70 L279.25,70 C289.5625,70 298,78.4375 298,88.75 C298,99.0625 289.5625,107.5 279.25,107.5 L279.25,107.5 Z" id="Stroke-302" stroke="#475159" stroke-width="4"></path>
                <path d="M43.5357143,70 L56.0660714,41.2267857 C56.2107143,40.1660714 60.8928571,29.0392857 61.1392857,28.0214286 C65.2107143,11.4410714 83.6982143,-3.18392857 99.7642857,2.60178571 L140.114286,17.1303571 C146.3875,19.3910714 153.239286,19.4821429 159.576786,17.3928571 L195.019643,1.92142857 C206.569643,-1.89285714 219.742857,1.31071429 227.141071,10.9696429 C230.221429,14.9875 239.205357,35.9017857 239.933929,41.2267857 L252.464286,70 L43.5357143,70 Z" id="Fill-303" fill="#69737A"></path>
                <path d="M252.464286,70 L43.5357143,70 L56.0660714,41.2267857 C56.2107143,40.1660714 60.8928571,29.0392857 61.1392857,28.0214286 C65.2107143,11.4410714 83.6982143,-3.18392857 99.7642857,2.60178571 L140.114286,17.1303571 C146.3875,19.3910714 153.239286,19.4821429 159.576786,17.3928571 L195.019643,1.92142857 C206.569643,-1.89285714 219.742857,1.31071429 227.141071,10.9696429 C230.221429,14.9875 239.205357,35.9017857 239.933929,41.2267857 L252.464286,70 L252.464286,70 Z" id="Stroke-304" stroke="#475159" stroke-width="4" stroke-linecap="round" stroke-linejoin="round"></path>
                <path d="M102.383929,166.428571 C102.383929,172.348214 97.5892857,177.142857 91.6696429,177.142857 C85.7553571,177.142857 80.9553571,172.348214 80.9553571,166.428571 C80.9553571,160.508929 85.7553571,155.714286 91.6696429,155.714286 C97.5892857,155.714286 102.383929,160.508929 102.383929,166.428571" id="Fill-328" fill="#475159"></path>
                <path d="M214.883929,166.428571 C214.883929,172.348214 210.089286,177.142857 204.169643,177.142857 C198.255357,177.142857 193.455357,172.348214 193.455357,166.428571 C193.455357,160.508929 198.255357,155.714286 204.169643,155.714286 C210.089286,155.714286 214.883929,160.508929 214.883929,166.428571" id="Fill-329" fill="#475159"></path>
                <path d="M210.651786,311.071429 L85.3482143,311.071429 C81.4857143,311.071429 78.3571429,307.942857 78.3571429,304.080357 L78.3571429,289.642857 L217.642857,289.642857 L217.642857,304.080357 C217.642857,307.942857 214.514286,311.071429 210.651786,311.071429 L210.651786,311.071429 Z" id="Fill-330" fill="#FFFFFF"></path>
                <path d="M210.651786,311.071429 L85.3482143,311.071429 C81.4857143,311.071429 78.3571429,307.942857 78.3571429,304.080357 L78.3571429,289.642857 L217.642857,289.642857 L217.642857,304.080357 C217.642857,307.942857 214.514286,311.071429 210.651786,311.071429 L210.651786,311.071429 Z" id="Stroke-331" stroke="#475159" stroke-width="4"></path>
                <path d="M110.5,214.642857 C98.7142857,214.642857 89.0714286,224.285714 89.0714286,236.071429 L89.0714286,289.642857 L206.928571,289.642857 L206.928571,236.071429 C206.928571,224.285714 197.285714,214.642857 185.5,214.642857 L110.5,214.642857 Z" id="Fill-332" fill="#69737A"></path>
                <path d="M185.5,214.642857 L110.5,214.642857 C98.7142857,214.642857 89.0714286,224.285714 89.0714286,236.071429 L89.0714286,289.642857 L206.928571,289.642857 L206.928571,236.071429 C206.928571,224.285714 197.285714,214.642857 185.5,214.642857 L185.5,214.642857 Z" id="Stroke-333" stroke="#475159" stroke-width="4" stroke-linecap="round" stroke-linejoin="round"></path>
                <path d="M62.2857143,155.714286 C74.8482143,143.151786 95.1785714,143.151786 107.741071,155.714286 M190.857143,155.714286 C203.419643,143.151786 223.75,143.151786 236.3125,155.714286" id="Stroke-334" stroke="#475159" stroke-width="4" stroke-linecap="round"></path>
                <path d="M233.714286,241.428571 C233.714286,226.621429 245.692857,214.642857 260.5,214.642857 M233.714286,241.428571 L233.714286,257.5" id="Stroke-335" stroke="#475159" stroke-width="4" stroke-linecap="round" stroke-linejoin="round"></path>
                <path d="M153.357143,262.857143 L164.071429,262.857143 L164.071429,273.571429 L169.0375,273.571429 C178.128571,273.571429 185.5,266.2 185.5,257.108929 L185.5,254.821429 C185.5,241.508929 174.705357,230.714286 161.392857,230.714286 L134.607143,230.714286 C121.294643,230.714286 110.5,241.508929 110.5,254.821429 L110.5,257.108929 C110.5,266.2 117.871429,273.571429 126.9625,273.571429 L131.928571,273.571429 L131.928571,262.857143 L153.357143,262.857143 L153.357143,262.857143 Z" id="Fill-336" fill="#FFFFFF"></path>
                <path d="M153.357143,262.857143 L164.071429,262.857143 L164.071429,273.571429 L169.0375,273.571429 C178.128571,273.571429 185.5,266.2 185.5,257.108929 L185.5,254.821429 C185.5,241.508929 174.705357,230.714286 161.392857,230.714286 L134.607143,230.714286 C121.294643,230.714286 110.5,241.508929 110.5,254.821429 L110.5,257.108929 C110.5,266.2 117.871429,273.571429 126.9625,273.571429 L131.928571,273.571429 L131.928571,262.857143 L153.357143,262.857143 L153.357143,262.857143 Z" id="Stroke-337" stroke="#475159" stroke-width="4" stroke-linecap="round" stroke-linejoin="round"></path>
                <path d="M137.285714,246.785714 L158.714286,246.785714 M62.2857143,241.428571 C62.2857143,226.621429 50.3071429,214.642857 35.5,214.642857 M62.2857143,241.428571 L62.2857143,257.5" id="Stroke-338" stroke="#475159" stroke-width="4" stroke-linecap="round" stroke-linejoin="round"></path>
            </g>
        </g>
    </g>
</svg>