<?xml version="1.0" encoding="UTF-8" standalone="no"?>
<svg width="305px" height="394px" viewBox="0 0 305 394" version="1.1" xmlns="http://www.w3.org/2000/svg" xmlns:xlink="http://www.w3.org/1999/xlink">
    <defs></defs>
    <g id="Page-1" stroke="none" stroke-width="1" fill="none" fill-rule="evenodd">
        <g id="index8" transform="translate(-704.000000, -95.000000)">
            <g id="lisa" transform="translate(706.415999, 96.681818)">
                <path d="M282.204545,314.636364 L17.7954545,314.636364 C7.96363636,314.636364 0,306.672727 0,296.840909 L0,23.0227273 C0,10.8590909 9.85909091,1 22.0227273,1 L277.977273,1 C290.140909,1 300,10.8590909 300,23.0227273 L300,296.840909 C300,306.672727 292.036364,314.636364 282.204545,314.636364 L282.204545,314.636364 Z" id="Fill-1490" fill="#363E45"></path>
                <path d="M282.204545,314.636364 L17.7954545,314.636364 C7.96363636,314.636364 0,306.672727 0,296.840909 L0,23.0227273 C0,10.8590909 9.85909091,1 22.0227273,1 L277.977273,1 C290.140909,1 300,10.8590909 300,23.0227273 L300,296.840909 C300,306.672727 292.036364,314.636364 282.204545,314.636364 L282.204545,314.636364 Z" id="Stroke-1491" stroke="#666666" stroke-width="4" stroke-linecap="round" stroke-linejoin="round"></path>
                <path d="M257.761364,389.636364 L42.2386364,389.636364 C30.2045455,389.636364 20.4545455,379.886364 20.4545455,367.859091 L20.4545455,314.636364 L279.545455,314.636364 L279.545455,367.859091 C279.545455,379.886364 269.795455,389.636364 257.761364,389.636364 L257.761364,389.636364 Z" id="Fill-1492" fill="#363E45"></path>
                <path d="M257.761364,389.636364 L42.2386364,389.636364 C30.2045455,389.636364 20.4545455,379.886364 20.4545455,367.859091 L20.4545455,314.636364 L279.545455,314.636364 L279.545455,367.859091 C279.545455,379.886364 269.795455,389.636364 257.761364,389.636364 L257.761364,389.636364 Z" id="Stroke-1493" stroke="#666666" stroke-width="4" stroke-linecap="round" stroke-linejoin="round"></path>
                <path d="M45.0613636,205.545455 C35.2363636,205.545455 27.2727273,197.581818 27.2727273,187.756818 L27.2727273,40.2181818 C27.2727273,33.6181818 32.625,28.2727273 39.2181818,28.2727273 L260.781818,28.2727273 C267.375,28.2727273 272.727273,33.6181818 272.727273,40.2181818 L272.727273,187.756818 C272.727273,197.581818 264.763636,205.545455 254.938636,205.545455 L45.0613636,205.545455 Z" id="Fill-1570" fill="#515E68"></path>
                <path d="M254.938636,205.545455 L45.0613636,205.545455 C35.2363636,205.545455 27.2727273,197.581818 27.2727273,187.756818 L27.2727273,40.2181818 C27.2727273,33.6181818 32.625,28.2727273 39.2181818,28.2727273 L260.781818,28.2727273 C267.375,28.2727273 272.727273,33.6181818 272.727273,40.2181818 L272.727273,187.756818 C272.727273,197.581818 264.763636,205.545455 254.938636,205.545455 L254.938636,205.545455 Z" id="Stroke-1571" stroke="#666666" stroke-width="4" stroke-linecap="round" stroke-linejoin="round"></path>
                <path d="M68.1818182,328.272727 L68.1818182,389.636364 M95.4545455,328.272727 L95.4545455,389.636364 M122.727273,328.272727 L122.727273,389.636364 M150,328.272727 L150,389.636364 M177.272727,328.272727 L177.272727,389.636364 M204.545455,328.272727 L204.545455,389.636364 M231.818182,328.272727 L231.818182,389.636364" id="Stroke-1572" stroke="#666666" stroke-width="4" stroke-linecap="round" stroke-linejoin="round"></path>
                <path d="M27.2727273,266.909091 L75,266.909091 L75,287.363636 L27.2727273,287.363636 L27.2727273,266.909091 Z" id="Fill-1573" fill="#515E68"></path>
                <path d="M27.2727273,266.909091 L75,266.909091 L75,287.363636 L27.2727273,287.363636 L27.2727273,266.909091 Z" id="Stroke-1574" stroke="#666666" stroke-width="4" stroke-linecap="round" stroke-linejoin="round"></path>
                <path d="M245.454545,266.909091 L272.727273,266.909091 L272.727273,287.363636 L245.454545,287.363636 L245.454545,266.909091 Z" id="Fill-1575" fill="#515E68"></path>
                <path d="M245.454545,266.909091 L272.727273,266.909091 L272.727273,287.363636 L245.454545,287.363636 L245.454545,266.909091 Z" id="Stroke-1576" stroke="#666666" stroke-width="4" stroke-linecap="round" stroke-linejoin="round"></path>
                <path d="M204.545455,226 L272.727273,226 M190.909091,246.454545 L272.727273,246.454545" id="Stroke-1577" stroke="#666666" stroke-width="4" stroke-linecap="round" stroke-linejoin="round"></path>
                <path d="M54.5454545,82.8181818 L81.8181818,55.5454545 M54.5454545,116.909091 L68.1818182,103.272727 M95.4545455,76 L115.909091,55.5454545" id="Stroke-1578" stroke="#666666" stroke-width="4" stroke-linecap="round" stroke-linejoin="round"></path>
            </g>
        </g>
    </g>
</svg>