<?xml version="1.0" encoding="UTF-8" standalone="no"?>
<svg width="149px" height="30px" viewBox="0 0 149 30" version="1.1" xmlns="http://www.w3.org/2000/svg" xmlns:xlink="http://www.w3.org/1999/xlink">
    <defs></defs>
    <g id="Page-1" stroke="none" stroke-width="1" fill="none" fill-rule="evenodd">
        <g id="Artboard-2" transform="translate(-504.000000, -257.000000)" fill="#FFFFFF">
            <path d="M514.242676,265.657227 C516.735852,265.657227 518.677972,266.560538 520.069092,268.367188 C521.460212,270.173837 522.155762,272.709131 522.155762,275.973145 C522.155762,279.249203 521.451179,281.799551 520.041992,283.624268 C518.632805,285.448984 516.675631,286.361328 514.17041,286.361328 C511.641101,286.361328 509.677904,285.451995 508.280762,283.633301 L507.991699,283.633301 L507.214844,286 L504.035156,286 L504.035156,257.888672 L508.280762,257.888672 L508.280762,264.573242 C508.280762,265.06706 508.256673,265.801753 508.208496,266.777344 C508.160319,267.752935 508.124186,268.373208 508.100098,268.638184 L508.280762,268.638184 C509.629727,266.650869 511.617012,265.657227 514.242676,265.657227 L514.242676,265.657227 Z M513.140625,269.125977 C511.43033,269.125977 510.198816,269.62882 509.446045,270.634521 C508.693274,271.640223 508.30485,273.323393 508.280762,275.684082 L508.280762,275.973145 C508.280762,278.406099 508.666175,280.167556 509.437012,281.257568 C510.207849,282.34758 511.466463,282.892578 513.212891,282.892578 C514.718432,282.892578 515.859615,282.296393 516.636475,281.104004 C517.413334,279.911615 517.801758,278.189302 517.801758,275.937012 C517.801758,271.396299 516.248062,269.125977 513.140625,269.125977 L513.140625,269.125977 Z M534.694228,286.361328 C531.586791,286.361328 529.156883,285.455006 527.404433,283.642334 C525.651983,281.829662 524.775771,279.333512 524.775771,276.153809 C524.775771,272.889795 525.588751,270.324391 527.214736,268.45752 C528.840721,266.590648 531.074911,265.657227 533.917373,265.657227 C536.555081,265.657227 538.638719,266.458163 540.168349,268.060059 C541.697979,269.661955 542.462783,271.866034 542.462783,274.672363 L542.462783,276.966797 L529.147841,276.966797 C529.208063,278.905934 529.731984,280.396398 530.719619,281.438232 C531.707254,282.480067 533.098353,283.000977 534.892959,283.000977 C536.073303,283.000977 537.172332,282.889568 538.190078,282.666748 C539.207824,282.443928 540.30083,282.07357 541.469131,281.555664 L541.469131,285.006348 C540.433318,285.500165 539.385477,285.849446 538.325576,286.054199 C537.265675,286.258953 536.055238,286.361328 534.694228,286.361328 L534.694228,286.361328 Z M533.917373,268.873047 C532.568408,268.873047 531.487445,269.300614 530.674453,270.155762 C529.86146,271.010909 529.376683,272.257479 529.220107,273.895508 L538.289443,273.895508 C538.265354,272.245434 537.867897,270.995854 537.09706,270.146729 C536.326223,269.297603 535.266338,268.873047 533.917373,268.873047 L533.917373,268.873047 Z M559.590117,280.309082 C559.590117,282.260264 558.879512,283.756749 557.458281,284.798584 C556.037049,285.840419 554.001588,286.361328 551.351835,286.361328 C548.690038,286.361328 546.552201,285.957849 544.938261,285.150879 L544.938261,281.483398 C547.286906,282.567388 549.472919,283.109375 551.496367,283.109375 C554.109986,283.109375 555.416777,282.320483 555.416777,280.742676 C555.416777,280.236814 555.272247,279.815269 554.983183,279.478027 C554.694119,279.140786 554.218375,278.791506 553.555937,278.430176 C552.893499,278.068846 551.972121,277.659345 550.791777,277.20166 C548.491309,276.31038 546.934603,275.419113 546.121611,274.527832 C545.308618,273.636552 544.902128,272.480313 544.902128,271.059082 C544.902128,269.348787 545.591656,268.020919 546.970732,267.075439 C548.349808,266.129959 550.225684,265.657227 552.598417,265.657227 C554.947062,265.657227 557.169208,266.132971 559.264921,267.084473 L557.891874,270.282227 C555.735939,269.390946 553.923294,268.945312 552.453886,268.945312 C550.21364,268.945312 549.093534,269.583652 549.093534,270.860352 C549.093534,271.486657 549.385605,272.016599 549.969755,272.450195 C550.553905,272.883791 551.827574,273.479977 553.7908,274.23877 C555.440873,274.877119 556.639266,275.46126 557.386015,275.991211 C558.132763,276.521162 558.686794,277.132402 559.048124,277.824951 C559.409454,278.5175 559.590117,279.345536 559.590117,280.309082 L559.590117,280.309082 Z M570.502606,282.928711 C571.538419,282.928711 572.574216,282.766115 573.610028,282.440918 L573.610028,285.638672 C573.140299,285.843426 572.535081,286.015055 571.794354,286.153564 C571.053628,286.292074 570.285813,286.361328 569.490888,286.361328 C565.468081,286.361328 563.456708,284.241558 563.456708,280.001953 L563.456708,269.234375 L560.728681,269.234375 L560.728681,267.355469 L563.655438,265.801758 L565.100751,261.574219 L567.72038,261.574219 L567.72038,266.018555 L573.411298,266.018555 L573.411298,269.234375 L567.72038,269.234375 L567.72038,279.929688 C567.72038,280.953456 567.976318,281.709226 568.488202,282.197021 C569.000086,282.684817 569.671548,282.928711 570.502606,282.928711 L570.502606,282.928711 Z M584.540585,286.361328 C581.674034,286.361328 579.454899,285.479094 577.883114,283.7146 C576.311329,281.950105 575.525448,279.453955 575.525448,276.226074 C575.525448,272.913883 576.323373,270.354501 577.919247,268.547852 C579.515121,266.741202 581.788454,265.837891 584.739315,265.837891 C585.690817,265.837891 586.642305,265.940266 587.593807,266.14502 C588.545309,266.349773 589.292047,266.590656 589.834042,266.867676 L588.912655,269.415039 C588.250217,269.150064 587.527568,268.930258 586.744686,268.755615 C585.961805,268.580972 585.269266,268.493652 584.667049,268.493652 C580.644243,268.493652 578.63287,271.059056 578.63287,276.189941 C578.63287,278.622896 579.123669,280.48974 580.105282,281.790527 C581.086895,283.091315 582.541226,283.741699 584.468319,283.741699 C586.118392,283.741699 587.810595,283.386397 589.544979,282.675781 L589.544979,285.331543 C588.220103,286.01807 586.551988,286.361328 584.540585,286.361328 L584.540585,286.361328 Z M602.185178,265.837891 C603.064414,265.837891 603.853306,265.910156 604.551877,266.054688 L604.13635,268.836914 C603.317335,268.656249 602.594686,268.565918 601.968381,268.565918 C600.366485,268.565918 598.996463,269.216302 597.858274,270.51709 C596.720084,271.817878 596.150998,273.437816 596.150998,275.376953 L596.150998,286 L593.151975,286 L593.151975,266.199219 L595.627072,266.199219 L595.970334,269.866699 L596.114865,269.866699 C596.84957,268.577956 597.734815,267.584313 598.770627,266.885742 C599.80644,266.187171 600.944612,265.837891 602.185178,265.837891 L602.185178,265.837891 Z M623.515318,276.081543 C623.515318,279.309424 622.702338,281.829662 621.076353,283.642334 C619.450369,285.455006 617.204135,286.361328 614.337584,286.361328 C612.567067,286.361328 610.995305,285.945805 609.622252,285.114746 C608.249198,284.283687 607.189313,283.091316 606.442564,281.537598 C605.695816,279.983879 605.322447,278.165212 605.322447,276.081543 C605.322447,272.853662 606.129405,270.339446 607.743345,268.538818 C609.357286,266.738191 611.597498,265.837891 614.464049,265.837891 C617.234245,265.837891 619.435313,266.759268 621.06732,268.602051 C622.699327,270.444833 623.515318,272.937973 623.515318,276.081543 L623.515318,276.081543 Z M608.429869,276.081543 C608.429869,278.610852 608.935723,280.537917 609.947447,281.862793 C610.959171,283.187669 612.446623,283.850098 614.409849,283.850098 C616.373075,283.850098 617.863539,283.19068 618.881285,281.871826 C619.899031,280.552972 620.407896,278.622897 620.407896,276.081543 C620.407896,273.564278 619.899031,271.652269 618.881285,270.345459 C617.863539,269.038649 616.361031,268.385254 614.373717,268.385254 C612.410491,268.385254 610.92906,269.029616 609.929381,270.318359 C608.929701,271.607103 608.429869,273.528145 608.429869,276.081543 L608.429869,276.081543 Z M643.111083,286 L639.479736,274.383301 C639.250893,273.672685 638.823326,272.058769 638.197021,269.541504 L638.05249,269.541504 C637.570716,271.649262 637.149171,273.275222 636.787841,274.419434 L633.048095,286 L629.579345,286 L624.17749,266.199219 L627.321044,266.199219 C628.597743,271.173527 629.570309,274.961413 630.238769,277.562988 C630.907229,280.164564 631.289631,281.916988 631.385986,282.820312 L631.530517,282.820312 C631.663005,282.133786 631.876788,281.24553 632.171874,280.155518 C632.466961,279.065506 632.722899,278.201338 632.939697,277.562988 L636.571044,266.199219 L639.822997,266.199219 L643.364013,277.562988 C644.038496,279.634613 644.496173,281.374993 644.73706,282.78418 L644.881591,282.78418 C644.929769,282.350584 645.059243,281.682133 645.270019,280.778809 C645.480795,279.875484 646.736397,275.015669 649.036865,266.199219 L652.144287,266.199219 L646.670165,286 L643.111083,286 Z" id="logo"></path>
        </g>
    </g>
</svg>