<?xml version="1.0" encoding="UTF-8" standalone="no"?>
<svg width="661px" height="289px" viewBox="0 0 661 289" version="1.1" xmlns="http://www.w3.org/2000/svg" xmlns:xlink="http://www.w3.org/1999/xlink">
    <defs></defs>
    <g id="Page-1" stroke="none" stroke-width="1" fill="none" fill-rule="evenodd" stroke-linecap="round" stroke-linejoin="round">
        <g id="index8" transform="translate(-185.000000, -1273.000000)" stroke-width="2">
            <g id="safe" transform="translate(179.000000, 1274.000000)">
                <path d="M466.03125,275.921875 C474.802875,275.921875 481.921875,268.802875 481.921875,260.03125 L481.921875,16.375 C481.921875,7.603375 474.802875,0.484375 466.03125,0.484375 L222.375,0.484375 C213.603375,0.484375 206.484375,7.603375 206.484375,16.375 L206.484375,260.03125 C206.484375,268.802875 213.603375,275.921875 222.375,275.921875 L466.03125,275.921875 L466.03125,275.921875 Z" id="Path" stroke="#2C7BA2" fill="#49A8D6"></path>
                <path d="M238.265625,32.265625 L450.140625,32.265625 L450.140625,244.140625 L238.265625,244.140625 L238.265625,32.265625 Z" id="Path" stroke="#2C7BA2" fill="#55B5E4"></path>
                <path d="M397.171875,191.171875 L366.672469,160.672469 L397.171875,191.171875 Z" id="Path" stroke="#2C7BA2"></path>
                <path d="M291.234375,191.171875 L321.754969,160.651281 L291.234375,191.171875 Z" id="Path" stroke="#2C7BA2"></path>
                <path d="M321.733781,115.733781 L291.234375,85.234375 L321.733781,115.733781 Z" id="Path" stroke="#2C7BA2"></path>
                <path d="M397.171875,85.234375 L366.661875,115.744375 L397.171875,85.234375 Z" id="Path" stroke="#2C7BA2"></path>
                <path d="M418.359375,286.515625 L439.546875,286.515625 L439.546875,275.921875 L418.359375,275.921875 L418.359375,286.515625 Z" id="Path" stroke="#2C7BA2" fill="#2C7BA2"></path>
                <path d="M248.859375,286.515625 L270.046875,286.515625 L270.046875,275.921875 L248.859375,275.921875 L248.859375,286.515625 Z" id="Path" stroke="#2C7BA2" fill="#2C7BA2"></path>
                <path d="M227.671875,180.578125 L238.265625,180.578125 L238.265625,201.765625 L227.671875,201.765625 L227.671875,180.578125 Z" id="Path" stroke="#2C7BA2" fill="#2C7BA2"></path>
                <path d="M227.671875,74.640625 L238.265625,74.640625 L238.265625,95.828125 L227.671875,95.828125 L227.671875,74.640625 Z" id="Path" stroke="#2C7BA2" fill="#2C7BA2"></path>
                <path d="M375.984375,138.203125 C375.984375,155.751672 361.751672,169.984375 344.203125,169.984375 C326.654578,169.984375 312.421875,155.751672 312.421875,138.203125 C312.421875,120.649281 326.654578,106.421875 344.203125,106.421875 C361.751672,106.421875 375.984375,120.649281 375.984375,138.203125 L375.984375,138.203125 Z" id="Path" stroke="#2C7BA2"></path>
                <g id="key" transform="translate(37.000000, 133.500000) scale(-1, 1) rotate(44.000000) translate(-37.000000, -133.500000) translate(11.000000, 108.000000)" stroke="#FFFFFF">
                    <path d="M44,13 C44,15.209 42.209,17 40,17 C37.791,17 36,15.209 36,13 C36,10.791 37.791,9 40,9 C42.209,9 44,10.791 44,13 L44,13 Z" id="Path"></path>
                    <path d="M25.389,25.551 L0,51 L25.389,25.551 Z" id="Path"></path>
                    <path d="M22.629,20.31 L0,42.939 L0,51 L8,51 L10,49 L12,49 L12,45 L16,45 L16,41 L20,41 L20,37 L28,37 L34.254,30.746" id="Path"></path>
                    <path d="M47.606,26.607 C41.75,32.464 32.251,32.465 26.394,26.607 C20.534,20.75 20.536,11.25 26.394,5.392 C32.25,-0.463 41.749,-0.465 47.606,5.392 C53.465,11.252 53.464,20.75 47.606,26.607 L47.606,26.607 Z" id="Path"></path>
                </g>
                <g id="key-2" transform="translate(636.000000, 133.500000) rotate(45.000000) translate(-636.000000, -133.500000) translate(610.000000, 108.000000)" stroke="#FFFFFF">
                    <path d="M44,13 C44,15.209 42.209,17 40,17 C37.791,17 36,15.209 36,13 C36,10.791 37.791,9 40,9 C42.209,9 44,10.791 44,13 L44,13 Z" id="Path"></path>
                    <path d="M25.389,25.551 L0,51 L25.389,25.551 Z" id="Path"></path>
                    <path d="M22.629,20.31 L0,42.939 L0,51 L8,51 L10,49 L12,49 L12,45 L16,45 L16,41 L20,41 L20,37 L28,37 L34.254,30.746" id="Path"></path>
                    <path d="M47.606,26.607 C41.75,32.464 32.251,32.465 26.394,26.607 C20.534,20.75 20.536,11.25 26.394,5.392 C32.25,-0.463 41.749,-0.465 47.606,5.392 C53.465,11.252 53.464,20.75 47.606,26.607 L47.606,26.607 Z" id="Path"></path>
                </g>
            </g>
        </g>
    </g>
</svg>